<svg width="160" height="160" viewBox="0 0 160 160" fill="none" xmlns="http://www.w3.org/2000/svg">
<path d="M147.5 120.325V117.5C147.5 116.125 146.375 115 145 115C143.625 115 142.5 116.125 142.5 117.5V120.325C138.175 121.425 135 125.35 135 130V132.5V137.5H130V127.5V117.5V110C130 100.35 122.15 92.5 112.5 92.5H111.6C110.45 91.475 109.05 90.725 107.5 90.325V89.35C108.2 88.85 108.875 88.325 109.5 87.7C110.075 87.5 110.6 87.25 111.125 87C113.175 88.9 115.9 90 118.75 90C124.95 90 130 84.95 130 78.75C130 76.475 129.3 74.325 128.075 72.5H132.5C133.875 72.5 135 71.375 135 70C135 68.625 133.875 67.5 132.5 67.5H128.525L131.775 64.275C132.75 63.3 132.75 61.7 131.775 60.725C130.8 59.75 129.2 59.75 128.225 60.725L124.975 63.975C124.45 49.275 112.325 37.5 97.5 37.5C96.85 37.5 96.175 37.525 95.525 37.575C98.325 34.15 100 29.775 100 25C100 13.975 91.025 5 80 5C68.975 5 60 13.975 60 25C60 35.575 68.25 44.275 78.675 44.95C73.35 49.975 70 57.1 70 65C70 68.55 70.7 71.925 72.05 75H15C9.475 75 5 79.475 5 85V120C5 125.525 9.475 130 15 130H31.25L30.3 137.5H7.5C6.125 137.5 5 138.625 5 140V152.5C5 153.875 6.125 155 7.5 155C8.875 155 10 153.875 10 152.5V142.5H67.5H77.5H117.5H127.5H137.5H150V152.5C150 153.875 151.125 155 152.5 155C153.875 155 155 153.875 155 152.5V140V130C155 125.35 151.825 121.425 147.5 120.325ZM110 100C110 101.975 108.9 103.625 107.075 104.375C105.425 105.075 103.7 104.85 102.35 103.75C105.25 102.125 107.25 99.125 107.475 95.65C108.975 96.525 110 98.15 110 100ZM87.525 95.65C87.75 99.125 89.75 102.125 92.65 103.75C91.3 104.85 89.575 105.075 87.925 104.375C86.1 103.625 85 101.975 85 100C85 98.15 86.025 96.525 87.525 95.65ZM85 91.35V87.225C85.75 88 86.6 88.725 87.5 89.35V90.325C86.6 90.55 85.775 90.9 85 91.35ZM92.5 95V91.775C94.075 92.25 95.775 92.5 97.5 92.5C99.225 92.5 100.925 92.25 102.5 91.775V95C102.5 97.75 100.25 100 97.5 100C94.75 100 92.5 97.75 92.5 95ZM97.075 56.475L97.5 56.025L97.925 56.475C101.225 59.75 105.45 61.8 110 62.35V75C110 81.9 104.4 87.5 97.5 87.5C90.6 87.5 85 81.9 85 75V62.35C89.55 61.8 93.775 59.75 97.075 56.475ZM77.5 25V17.5C77.5 16.125 78.625 15 80 15C81.375 15 82.5 16.125 82.5 17.5V22.5H87.5C88.875 22.5 90 23.625 90 25C90 26.375 88.875 27.5 87.5 27.5H80C78.625 27.5 77.5 26.375 77.5 25ZM65 137.5H59.7L58.75 130H65V137.5ZM75 137.5H70V130H75V137.5ZM75 125H67.5H58.125L55.9 107.125C55.225 101.65 50.525 97.5 45 97.5C39.475 97.5 34.775 101.65 34.1 107.125L31.875 125H15C12.25 125 10 122.75 10 120V85C10 82.25 12.25 80 15 80H55H75C77.75 80 80 82.25 80 85V100V120C80 122.75 77.75 125 75 125ZM125 137.5H120V130H125V137.5ZM125 125H120V120H125V125ZM125 115H117.5C116.125 115 115 116.125 115 117.5V127.5V137.5H80V128.65C83 126.925 85 123.7 85 120V108.5C85.325 108.7 85.675 108.85 86.025 109C89.725 110.55 93.8 109.725 96.65 106.9L97.5 106.025L98.35 106.9C100.25 108.775 102.675 109.775 105.2 109.775C106.45 109.775 107.75 109.525 108.975 109C112.7 107.475 115 104.025 115 100C115 99.2 114.9 98.425 114.725 97.7C120.575 98.75 125 103.85 125 110V115ZM150 137.5H140V135H142.5C143.875 135 145 133.875 145 132.5C145 131.125 143.875 130 142.5 130H140C140 127.25 142.25 125 145 125C147.75 125 150 127.25 150 130V137.5Z" fill="#919396"/>
<path d="M150 25C150 13.975 141.025 5 130 5C118.975 5 110 13.975 110 25C110 36.025 118.975 45 130 45C141.025 45 150 36.025 150 25ZM121.125 22.075C119.975 21.325 119.65 19.75 120.425 18.625C121.175 17.475 122.725 17.15 123.875 17.925L129.675 21.775L133.225 18.225C134.2 17.25 135.8 17.25 136.775 18.225C137.75 19.2 137.75 20.8 136.775 21.775L131.775 26.775C131.275 27.25 130.65 27.5 130 27.5C129.525 27.5 129.025 27.35 128.625 27.075L121.125 22.075Z" fill="#919396"/>
<path d="M107.5 117.5H102.5C101.125 117.5 100 118.625 100 120C100 121.375 101.125 122.5 102.5 122.5H107.5C108.875 122.5 110 121.375 110 120C110 118.625 108.875 117.5 107.5 117.5Z" fill="#919396"/>
<path d="M102.5 70C103.881 70 105 68.8807 105 67.5C105 66.1193 103.881 65 102.5 65C101.119 65 100 66.1193 100 67.5C100 68.8807 101.119 70 102.5 70Z" fill="#919396"/>
<path d="M92.5 70C93.8807 70 95 68.8807 95 67.5C95 66.1193 93.8807 65 92.5 65C91.1193 65 90 66.1193 90 67.5C90 68.8807 91.1193 70 92.5 70Z" fill="#919396"/>
<path d="M97.4999 82.0749C99.9499 82.0749 102.4 81.1249 104.275 79.2749C105.25 78.2999 105.25 76.6999 104.275 75.7249C103.3 74.7499 101.7 74.7499 100.725 75.7249C98.9499 77.5249 96.0499 77.5249 94.2749 75.7249C93.2999 74.7499 91.6999 74.7499 90.7249 75.7249C89.7499 76.6999 89.7499 78.2999 90.7249 79.2749C92.5999 81.1249 95.0499 82.0749 97.4999 82.0749Z" fill="#919396"/>
<path d="M55 87.5H35C33.625 87.5 32.5 88.625 32.5 90C32.5 91.375 33.625 92.5 35 92.5H45H55C56.375 92.5 57.5 91.375 57.5 90C57.5 88.625 56.375 87.5 55 87.5Z" fill="#919396"/>
<path d="M30 45C41.025 45 50 36.025 50 25C50 13.975 41.025 5 30 5C18.975 5 10 13.975 10 25C10 36.025 18.975 45 30 45ZM27.5 25C27.5 23.625 28.625 22.5 30 22.5H37.5C38.875 22.5 40 23.625 40 25C40 26.375 38.875 27.5 37.5 27.5H32.5V32.5C32.5 33.875 31.375 35 30 35C28.625 35 27.5 33.875 27.5 32.5V25Z" fill="#919396"/>
</svg>
