<svg width="571" height="468" viewBox="0 0 571 468" fill="none" xmlns="http://www.w3.org/2000/svg">
<path d="M267.984 455H265.744L256.656 436.696H231.184L222.288 455H220.048L243.984 405.848L267.984 455ZM255.888 434.84L243.856 410.456L232.08 434.84H255.888ZM317.295 407V455H315.183V410.072L292.527 455.896L269.998 409.496V455H267.886V407H270.894L292.527 451.544L314.351 407H317.295ZM320.671 407H322.783V455H320.671V407ZM336.234 455.896C330.901 455.896 326.762 453.699 323.818 449.304V445.848C324.97 448.408 326.634 450.413 328.81 451.864C331.029 453.315 333.674 454.04 336.746 454.04C338.879 454.04 340.842 453.571 342.634 452.632C344.469 451.693 345.919 450.371 346.986 448.664C348.053 446.957 348.586 444.995 348.586 442.776C348.586 440.771 348.245 439.043 347.562 437.592C346.879 436.141 345.749 434.755 344.17 433.432C342.591 432.067 340.309 430.467 337.322 428.632L335.274 427.352C333.397 426.2 331.882 425.176 330.73 424.28C329.578 423.384 328.575 422.339 327.722 421.144C326.613 419.48 326.058 417.56 326.058 415.384C326.058 412.483 326.997 410.221 328.874 408.6C330.751 406.979 333.141 406.168 336.042 406.168C339.967 406.168 343.082 407.619 345.386 410.52V413.784C344.405 411.992 343.061 410.584 341.354 409.56C339.647 408.536 337.77 408.024 335.722 408.024C333.589 408.024 331.797 408.685 330.346 410.008C328.895 411.331 328.17 413.101 328.17 415.32C328.17 417.496 328.831 419.373 330.154 420.952C331.519 422.488 333.802 424.173 337.002 426.008C340.927 428.312 343.978 430.403 346.154 432.28C347.69 433.688 348.799 435.245 349.482 436.952C350.207 438.659 350.57 440.557 350.57 442.648C350.57 445.293 349.951 447.619 348.714 449.624C347.477 451.629 345.77 453.187 343.594 454.296C341.418 455.363 338.965 455.896 336.234 455.896Z" fill="#464547"/>
<path d="M166.114 93.462C169 91.7493 170.297 88.6067 169.013 86.4428C167.729 84.2788 164.348 83.913 161.463 85.6256C158.578 87.3382 157.28 90.4808 158.565 92.6448C159.849 94.8087 163.229 95.1746 166.114 93.462Z" fill="#AD5A1C"/>
<path d="M167.692 92.0499C168.193 91.4085 168.561 90.6682 168.776 89.8713C168.991 89.0745 169.049 88.2367 168.945 87.4059C168.841 86.5752 168.578 85.7678 168.171 85.0299C167.763 84.292 167.22 83.6382 166.572 83.1058C166.49 82.9667 166.288 82.9323 166.165 82.8347C163.911 86.2767 161.296 89.4512 158.363 92.3044C158.551 92.51 158.75 92.7059 158.957 92.8916C160.267 93.9617 161.921 94.474 163.558 94.3162C165.195 94.1585 166.681 93.3436 167.692 92.0499Z" fill="#874315"/>
<g filter="url(#filter0_d_802_23)">
<rect x="4" y="200.338" width="562.038" height="182.662" rx="91.3312" fill="#718785"/>
<rect x="20" y="216.338" width="530.038" height="150.662" rx="75.3312" stroke="url(#paint0_linear_802_23)" stroke-width="32"/>
</g>
<g filter="url(#filter1_d_802_23)">
<g filter="url(#filter2_d_802_23)">
<path d="M156.586 283.121C155.918 283.033 155.25 282.957 154.584 282.88C153.633 277.957 151.688 273.279 148.869 269.132C149.29 268.604 149.708 268.072 150.123 267.537C151.256 266.082 152.373 264.61 153.44 263.091L144.986 254.636C143.466 255.703 141.995 256.82 140.539 257.953C140.004 258.367 139.473 258.785 138.945 259.207C134.793 256.385 130.109 254.439 125.18 253.488C125.104 252.823 125.024 252.157 124.94 251.491C124.712 249.662 124.462 247.832 124.142 246.003H112.185C111.867 247.832 111.617 249.662 111.387 251.491C111.302 252.156 111.223 252.822 111.15 253.488C106.219 254.438 101.535 256.384 97.3826 259.207C96.8547 258.784 96.3231 258.366 95.7878 257.953C94.3327 256.82 92.8629 255.703 91.3435 254.636L82.8872 263.091C83.956 264.61 85.0726 266.082 86.2039 267.537C86.6196 268.07 87.0378 268.601 87.4584 269.13C84.6357 273.282 82.6897 277.967 81.7394 282.897C81.0734 282.972 80.4094 283.051 79.7435 283.136C77.9132 283.364 76.0847 283.614 74.2544 283.934V295.891C76.0847 296.209 77.9132 296.459 79.7435 296.689C80.4094 296.774 81.0734 296.853 81.7394 296.927C82.6881 301.852 84.6309 306.532 87.4492 310.681C87.028 311.211 86.6068 311.74 86.1947 312.277C85.0652 313.736 83.9524 315.21 82.8872 316.733L91.3435 325.187C92.8666 324.124 94.3401 323.011 95.7988 321.882C96.3359 321.469 96.8657 321.048 97.3955 320.627C101.54 323.442 106.214 325.383 111.133 326.333C111.208 326.999 111.286 327.667 111.374 328.333C111.606 330.163 111.86 331.992 112.185 333.822H124.142C124.468 331.992 124.723 330.163 124.955 328.333C125.043 327.667 125.119 326.999 125.196 326.333C130.114 325.383 134.788 323.441 138.932 320.627C139.462 321.048 139.993 321.469 140.53 321.882C141.987 323.011 143.461 324.124 144.986 325.187L153.44 316.733C152.377 315.21 151.264 313.736 150.133 312.277C149.72 311.738 149.299 311.209 148.88 310.679C151.694 306.535 153.634 301.862 154.584 296.943C155.25 296.866 155.918 296.791 156.586 296.702C158.414 296.471 160.244 296.217 162.073 295.891V283.934C160.244 283.609 158.414 283.353 156.586 283.121ZM142.931 297.995C142.514 299.27 141.999 300.51 141.389 301.704C138.878 306.625 134.877 310.626 129.957 313.138C126.304 314.999 122.263 315.969 118.164 315.969C114.064 315.969 110.023 314.999 106.37 313.138C101.45 310.626 97.4491 306.625 94.9379 301.704C94.3239 300.502 93.806 299.253 93.389 297.97C92.3276 294.717 91.9193 291.287 92.1873 287.877C92.4553 284.466 93.3945 281.142 94.9508 278.096C97.4585 273.195 101.446 269.208 106.347 266.7C107.556 266.08 108.814 265.557 110.107 265.136C115.344 263.436 120.985 263.436 126.223 265.138C127.515 265.558 128.771 266.08 129.981 266.7C134.882 269.208 138.869 273.195 141.377 278.096C142.931 281.147 143.869 284.476 144.136 287.891C144.403 291.305 143.993 294.739 142.931 297.995Z" fill="#40E0D0"/>
</g>
<g filter="url(#filter3_d_802_23)">
<path d="M272.506 283.121C271.838 283.033 271.17 282.957 270.505 282.88C269.554 277.957 267.609 273.279 264.789 269.132C265.21 268.604 265.629 268.072 266.044 267.537C267.177 266.082 268.293 264.61 269.36 263.091L260.906 254.636C259.387 255.703 257.915 256.82 256.46 257.953C255.925 258.367 255.393 258.785 254.865 259.207C250.713 256.385 246.03 254.439 241.1 253.488C241.025 252.823 240.945 252.157 240.861 251.491C240.633 249.662 240.383 247.832 240.062 246.003H228.106C227.787 247.832 227.537 249.662 227.307 251.491C227.223 252.156 227.144 252.822 227.07 253.488C222.14 254.438 217.455 256.384 213.303 259.207C212.775 258.784 212.243 258.366 211.708 257.953C210.253 256.82 208.783 255.703 207.264 254.636L198.808 263.091C199.876 264.61 200.993 266.082 202.124 267.537C202.54 268.07 202.958 268.601 203.379 269.13C200.556 273.282 198.61 277.967 197.66 282.897C196.994 282.972 196.33 283.051 195.664 283.136C193.834 283.364 192.005 283.614 190.175 283.934V295.891C192.005 296.209 193.834 296.459 195.664 296.689C196.33 296.774 196.994 296.853 197.66 296.927C198.608 301.852 200.551 306.532 203.37 310.681C202.948 311.211 202.527 311.74 202.115 312.277C200.986 313.736 199.873 315.21 198.808 316.733L207.264 325.187C208.787 324.124 210.26 323.011 211.719 321.882C212.256 321.469 212.786 321.048 213.316 320.627C217.46 323.442 222.134 325.383 227.053 326.333C227.129 326.999 227.206 327.667 227.294 328.333C227.526 330.163 227.78 331.992 228.106 333.822H240.062C240.388 331.992 240.644 330.163 240.876 328.333C240.964 327.667 241.039 326.999 241.116 326.333C246.035 325.383 250.708 323.441 254.852 320.627C255.382 321.048 255.914 321.469 256.451 321.882C257.908 323.011 259.381 324.124 260.906 325.187L269.36 316.733C268.297 315.21 267.184 313.736 266.053 312.277C265.641 311.738 265.22 311.209 264.8 310.679C267.614 306.535 269.555 301.862 270.505 296.943C271.17 296.866 271.838 296.791 272.506 296.702C274.334 296.471 276.165 296.217 277.993 295.891V283.934C276.165 283.609 274.334 283.353 272.506 283.121ZM258.851 297.995C258.434 299.27 257.919 300.51 257.31 301.704C254.799 306.625 250.797 310.626 245.877 313.138C242.224 314.999 238.183 315.969 234.084 315.969C229.985 315.969 225.944 314.999 222.291 313.138C217.371 310.626 213.37 306.625 210.858 301.704C210.244 300.502 209.726 299.253 209.309 297.97C208.248 294.717 207.84 291.287 208.108 287.877C208.376 284.466 209.315 281.142 210.871 278.096C213.379 273.195 217.366 269.208 222.267 266.7C223.477 266.08 224.734 265.557 226.027 265.136C231.264 263.436 236.906 263.436 242.143 265.138C243.435 265.558 244.692 266.08 245.901 266.7C250.802 269.208 254.789 273.195 257.297 278.096C258.852 281.147 259.789 284.476 260.056 287.891C260.323 291.305 259.913 294.739 258.851 297.995Z" fill="#40E0D0"/>
</g>
<g filter="url(#filter4_d_802_23)">
<path d="M388.426 283.121C387.759 283.033 387.091 282.957 386.425 282.88C385.474 277.957 383.529 273.279 380.71 269.132C381.131 268.604 381.549 268.072 381.964 267.537C383.097 266.082 384.214 264.61 385.281 263.091L376.826 254.636C375.307 255.703 373.835 256.82 372.38 257.953C371.845 258.367 371.313 258.785 370.785 259.207C366.634 256.385 361.95 254.439 357.02 253.488C356.945 252.823 356.865 252.157 356.781 251.491C356.553 249.662 356.303 247.832 355.983 246.003H344.026C343.708 247.832 343.458 249.662 343.228 251.491C343.143 252.156 343.064 252.822 342.99 253.488C338.06 254.438 333.375 256.384 329.223 259.207C328.695 258.784 328.164 258.366 327.629 257.953C326.174 256.82 324.704 255.703 323.184 254.636L314.728 263.091C315.797 264.61 316.913 266.082 318.045 267.537C318.46 268.07 318.879 268.601 319.299 269.13C316.477 273.282 314.531 277.967 313.58 282.897C312.914 282.972 312.25 283.051 311.584 283.136C309.754 283.364 307.926 283.614 306.095 283.934V295.891C307.926 296.209 309.754 296.459 311.584 296.689C312.25 296.774 312.914 296.853 313.58 296.927C314.529 301.852 316.472 306.532 319.29 310.681C318.869 311.211 318.448 311.74 318.036 312.277C316.906 313.736 315.793 315.21 314.728 316.733L323.184 325.187C324.707 324.124 326.181 323.011 327.64 321.882C328.177 321.469 328.707 321.048 329.236 320.627C333.381 323.442 338.055 325.383 342.974 326.333C343.049 326.999 343.126 327.667 343.215 328.333C343.447 330.163 343.7 331.992 344.026 333.822H355.983C356.308 331.992 356.564 330.163 356.796 328.333C356.884 327.667 356.96 326.999 357.037 326.333C361.955 325.383 366.629 323.441 370.773 320.627C371.302 321.048 371.834 321.469 372.371 321.882C373.828 323.011 375.301 324.124 376.826 325.187L385.281 316.733C384.218 315.21 383.105 313.736 381.973 312.277C381.561 311.738 381.14 311.209 380.721 310.679C383.534 306.535 385.475 301.862 386.425 296.943C387.091 296.866 387.759 296.791 388.426 296.702C390.255 296.471 392.085 296.217 393.914 295.891V283.934C392.085 283.609 390.255 283.353 388.426 283.121ZM374.772 297.995C374.355 299.27 373.839 300.51 373.23 301.704C370.719 306.625 366.718 310.626 361.798 313.138C358.145 314.999 354.104 315.969 350.004 315.969C345.905 315.969 341.864 314.999 338.211 313.138C333.291 310.626 329.29 306.625 326.779 301.704C326.165 300.502 325.647 299.253 325.23 297.97C324.168 294.717 323.76 291.287 324.028 287.877C324.296 284.466 325.235 281.142 326.792 278.096C329.299 273.195 333.286 269.208 338.187 266.7C339.397 266.08 340.655 265.557 341.947 265.136C347.185 263.436 352.826 263.436 358.063 265.138C359.355 265.558 360.612 266.08 361.821 266.7C366.722 269.208 370.71 273.195 373.217 278.096C374.772 281.147 375.71 284.476 375.977 287.891C376.243 291.305 375.834 294.739 374.772 297.995Z" fill="#40E0D0"/>
</g>
<g filter="url(#filter5_d_802_23)">
<path d="M504.347 283.121C503.679 283.033 503.011 282.957 502.345 282.88C501.394 277.957 499.45 273.279 496.63 269.132C497.051 268.604 497.469 268.072 497.885 267.537C499.018 266.082 500.134 264.61 501.201 263.091L492.747 254.636C491.227 255.703 489.756 256.82 488.301 257.953C487.765 258.367 487.234 258.785 486.706 259.207C482.554 256.385 477.87 254.439 472.941 253.488C472.865 252.823 472.786 252.157 472.702 251.491C472.474 249.662 472.223 247.832 471.903 246.003H459.946C459.628 247.832 459.378 249.662 459.148 251.491C459.063 252.156 458.984 252.822 458.911 253.488C453.98 254.438 449.296 256.384 445.144 259.207C444.616 258.784 444.084 258.366 443.549 257.953C442.094 256.82 440.624 255.703 439.105 254.636L430.648 263.091C431.717 264.61 432.834 266.082 433.965 267.537C434.381 268.07 434.799 268.601 435.22 269.13C432.397 273.282 430.451 277.967 429.501 282.897C428.835 282.972 428.171 283.051 427.505 283.136C425.674 283.364 423.846 283.614 422.016 283.934V295.891C423.846 296.209 425.674 296.459 427.505 296.689C428.171 296.774 428.835 296.853 429.501 296.927C430.449 301.852 432.392 306.532 435.21 310.681C434.789 311.211 434.368 311.74 433.956 312.277C432.826 313.736 431.714 315.21 430.648 316.733L439.105 325.187C440.628 324.124 442.101 323.011 443.56 321.882C444.097 321.469 444.627 321.048 445.157 320.627C449.301 323.442 453.975 325.383 458.894 326.333C458.97 326.999 459.047 327.667 459.135 328.333C459.367 330.163 459.621 331.992 459.946 333.822H471.903C472.229 331.992 472.485 330.163 472.716 328.333C472.805 327.667 472.88 326.999 472.957 326.333C477.876 325.383 482.549 323.441 486.693 320.627C487.223 321.048 487.754 321.469 488.292 321.882C489.748 323.011 491.222 324.124 492.747 325.187L501.201 316.733C500.138 315.21 499.025 313.736 497.894 312.277C497.482 311.738 497.06 311.209 496.641 310.679C499.455 306.535 501.396 301.862 502.345 296.943C503.011 296.866 503.679 296.791 504.347 296.702C506.175 296.471 508.006 296.217 509.834 295.891V283.934C508.006 283.609 506.175 283.353 504.347 283.121ZM490.692 297.995C490.275 299.27 489.76 300.51 489.151 301.704C486.639 306.625 482.638 310.626 477.718 313.138C474.065 314.999 470.024 315.969 465.925 315.969C461.826 315.969 457.784 314.999 454.132 313.138C449.211 310.626 445.21 306.625 442.699 301.704C442.085 300.502 441.567 299.253 441.15 297.97C440.089 294.717 439.68 291.287 439.949 287.877C440.217 284.466 441.156 281.142 442.712 278.096C445.22 273.195 449.207 269.208 454.108 266.7C455.318 266.08 456.575 265.557 457.868 265.136C463.105 263.436 468.747 263.436 473.984 265.138C475.276 265.558 476.533 266.08 477.742 266.7C482.643 269.208 486.63 273.195 489.138 278.096C490.693 281.147 491.63 284.476 491.897 287.891C492.164 291.305 491.754 294.739 490.692 297.995Z" fill="#40E0D0"/>
</g>
<g filter="url(#filter6_d_802_23)">
<path d="M119.249 274.106L119.92 271.935L118.164 270.593L116.408 271.935L117.079 274.106H119.249Z" fill="#40E0D0"/>
</g>
<g filter="url(#filter7_d_802_23)">
<path d="M235.17 274.106L235.841 271.935L234.084 270.593L232.328 271.935L232.999 274.106H235.17Z" fill="#40E0D0"/>
</g>
<g filter="url(#filter8_d_802_23)">
<path d="M351.09 274.106L351.761 271.935L350.005 270.593L348.249 271.935L348.92 274.106H351.09Z" fill="#40E0D0"/>
</g>
<g filter="url(#filter9_d_802_23)">
<path d="M467.011 274.106L467.682 271.935L465.925 270.593L464.169 271.935L464.84 274.106H467.011Z" fill="#40E0D0"/>
</g>
<g filter="url(#filter10_d_802_23)">
<path d="M137.022 283.734L137.484 279.391L133.427 277.618L130.458 280.864L132.68 284.644L137.022 283.734Z" fill="#40E0D0"/>
</g>
<g filter="url(#filter11_d_802_23)">
<path d="M253.174 283.734L253.405 279.391L251.377 277.618L249.892 280.864L251.003 284.644L253.174 283.734Z" fill="#40E0D0"/>
</g>
<g filter="url(#filter12_d_802_23)">
<path d="M369.094 283.734L369.325 279.391L367.296 277.618L365.812 280.864L366.923 284.644L369.094 283.734Z" fill="#40E0D0"/>
</g>
<g filter="url(#filter13_d_802_23)">
<path d="M481.501 283.734L481.732 279.391L479.704 277.618L478.22 280.864L479.33 284.644L481.501 283.734Z" fill="#40E0D0"/>
</g>
<g filter="url(#filter14_d_802_23)">
<path d="M132.673 295.182L130.458 298.966L133.432 302.208L137.484 300.427L137.015 296.085L132.673 295.182Z" fill="#40E0D0"/>
</g>
<g filter="url(#filter15_d_802_23)">
<path d="M250.999 295.182L249.892 298.966L251.379 302.208L253.405 300.427L253.171 296.085L250.999 295.182Z" fill="#40E0D0"/>
</g>
<g filter="url(#filter16_d_802_23)">
<path d="M366.919 295.182L365.812 298.966L367.299 302.208L369.325 300.427L369.09 296.085L366.919 295.182Z" fill="#40E0D0"/>
</g>
<g filter="url(#filter17_d_802_23)">
<path d="M479.327 295.182L478.22 298.966L479.707 302.208L481.732 300.427L481.498 296.085L479.327 295.182Z" fill="#40E0D0"/>
</g>
<g filter="url(#filter18_d_802_23)">
<path d="M117.075 305.724L116.408 307.894L118.166 309.232L119.92 307.888L119.246 305.72L117.075 305.724Z" fill="#40E0D0"/>
</g>
<g filter="url(#filter19_d_802_23)">
<path d="M233.663 305.724L232.328 307.894L235.845 309.232L239.354 307.888L238.005 305.72L233.663 305.724Z" fill="#40E0D0"/>
</g>
<g filter="url(#filter20_d_802_23)">
<path d="M348.916 305.724L348.249 307.894L350.007 309.232L351.761 307.888L351.087 305.72L348.916 305.724Z" fill="#40E0D0"/>
</g>
<g filter="url(#filter21_d_802_23)">
<path d="M464.836 305.724L464.169 307.894L465.927 309.232L467.682 307.888L467.007 305.72L464.836 305.724Z" fill="#40E0D0"/>
</g>
<g filter="url(#filter22_d_802_23)">
<path d="M99.299 299.153L98.8438 301.325L102.904 302.208L105.869 300.583L103.64 298.695L99.299 299.153Z" fill="#40E0D0"/>
</g>
<g filter="url(#filter23_d_802_23)">
<path d="M218.504 299.153L218.277 301.325L220.307 302.208L221.79 300.583L220.675 298.695L218.504 299.153Z" fill="#40E0D0"/>
</g>
<g filter="url(#filter24_d_802_23)">
<path d="M334.425 299.153L334.197 301.325L336.228 302.208L337.71 300.583L336.595 298.695L334.425 299.153Z" fill="#40E0D0"/>
</g>
<g filter="url(#filter25_d_802_23)">
<path d="M446.833 299.153L446.605 301.325L448.635 302.208L450.118 300.583L449.003 298.695L446.833 299.153Z" fill="#40E0D0"/>
</g>
<g filter="url(#filter26_d_802_23)">
<path d="M103.662 284.644L105.869 280.856L102.892 277.618L98.8438 279.406L99.3188 283.748L103.662 284.644Z" fill="#40E0D0"/>
</g>
<g filter="url(#filter27_d_802_23)">
<path d="M220.686 284.644L221.79 280.856L220.301 277.618L218.277 279.406L218.514 283.748L220.686 284.644Z" fill="#40E0D0"/>
</g>
<g filter="url(#filter28_d_802_23)">
<path d="M336.606 284.644L337.71 280.856L336.221 277.618L334.197 279.406L334.435 283.748L336.606 284.644Z" fill="#40E0D0"/>
</g>
<g filter="url(#filter29_d_802_23)">
<path d="M449.014 284.644L450.118 280.856L448.629 277.618L446.605 279.406L446.843 283.748L449.014 284.644Z" fill="#40E0D0"/>
</g>
<g filter="url(#filter30_d_802_23)">
<path d="M118.164 298.695C123.014 298.695 126.946 294.763 126.946 289.913C126.946 285.063 123.014 281.131 118.164 281.131C113.314 281.131 109.382 285.063 109.382 289.913C109.382 294.763 113.314 298.695 118.164 298.695Z" fill="#40E0D0"/>
</g>
<g filter="url(#filter31_d_802_23)">
<path d="M234.084 298.695C238.934 298.695 242.866 294.763 242.866 289.913C242.866 285.063 238.934 281.131 234.084 281.131C229.234 281.131 225.302 285.063 225.302 289.913C225.302 294.763 229.234 298.695 234.084 298.695Z" fill="#40E0D0"/>
</g>
<g filter="url(#filter32_d_802_23)">
<path d="M350.005 298.695C354.855 298.695 358.787 294.763 358.787 289.913C358.787 285.063 354.855 281.131 350.005 281.131C345.155 281.131 341.223 285.063 341.223 289.913C341.223 294.763 345.155 298.695 350.005 298.695Z" fill="#40E0D0"/>
</g>
<g filter="url(#filter33_d_802_23)">
<path d="M465.925 298.695C470.775 298.695 474.707 294.763 474.707 289.913C474.707 285.063 470.775 281.131 465.925 281.131C461.075 281.131 457.143 285.063 457.143 289.913C457.143 294.763 461.075 298.695 465.925 298.695Z" fill="#40E0D0"/>
</g>
</g>
<path d="M308.685 94.7432C311.57 93.0306 312.868 89.888 311.583 87.724C310.299 85.5601 306.919 85.1942 304.033 86.9068C301.148 88.6195 299.85 91.762 301.135 93.926C302.419 96.09 305.8 96.4558 308.685 94.7432Z" fill="#AD5A1C"/>
<path d="M310.262 93.3312C310.763 92.6898 311.132 91.9494 311.347 91.1526C311.562 90.3557 311.619 89.5179 311.515 88.6872C311.411 87.8564 311.148 87.049 310.741 86.3112C310.334 85.5733 309.791 84.9194 309.143 84.387C309.06 84.248 308.859 84.2135 308.735 84.1159C306.482 87.558 303.866 90.7325 300.933 93.5857C301.122 93.7912 301.32 93.9872 301.528 94.1728C302.837 95.243 304.492 95.7552 306.128 95.5975C307.765 95.4398 309.252 94.6249 310.262 93.3312Z" fill="#874315"/>
<path d="M309.982 93.9718C308.79 94.6776 307.467 95.1091 306.155 95.2197C304.844 95.3303 303.593 95.1157 302.54 94.5992C301.487 94.0826 300.671 93.2839 300.18 92.2892C299.689 91.2946 299.542 90.1421 299.755 88.9562C299.968 87.7704 300.533 86.5965 301.388 85.5616C302.244 84.5266 303.357 83.67 304.609 83.0844C305.86 82.4989 307.201 82.2067 308.487 82.2394C309.773 82.2721 310.955 82.6286 311.905 83.2702C312.588 83.7328 313.135 84.3325 313.515 85.0349C313.894 85.7373 314.098 86.5287 314.115 87.3638C314.132 88.199 313.961 89.0615 313.614 89.9022C313.266 90.743 312.748 91.5454 312.088 92.2636C311.487 92.927 310.773 93.5063 309.982 93.9718ZM305.363 86.189C304.981 86.4157 304.637 86.6975 304.349 87.0199C303.746 87.6849 303.403 88.4834 303.386 89.2583C303.369 90.0332 303.68 90.7286 304.258 91.2078C304.835 91.687 305.638 91.9153 306.507 91.8478C307.377 91.7803 308.25 91.422 308.957 90.8432C309.663 90.2644 310.151 89.5071 310.324 88.72C310.497 87.9329 310.344 87.1731 309.893 86.5897C309.443 86.0064 308.728 85.6419 307.89 85.5677C307.051 85.4936 306.15 85.7152 305.363 86.189Z" fill="#1E0505"/>
<path d="M269.418 105.956C272.421 107.299 275.568 108.302 278.801 108.948C279.725 108.286 280.448 107.383 280.89 106.34C281.332 105.298 281.476 104.156 281.306 103.042C281.136 101.927 280.658 100.885 279.926 100.029C279.194 99.1735 278.237 98.5388 277.16 98.1954C276.083 97.8519 274.929 97.8133 273.826 98.0837C272.723 98.3541 271.714 98.923 270.912 99.7272C270.11 100.531 269.546 101.539 269.282 102.639C269.018 103.739 269.065 104.887 269.418 105.956Z" fill="#AD5A1C"/>
<path d="M278.583 112.61L277.829 112.39C274.348 111.347 270.926 109.899 267.626 108.073L266.908 107.679L266.614 106.882C265.826 104.793 265.744 102.577 266.382 100.664C267.021 98.7511 268.335 97.278 270.069 96.5304C271.804 95.7828 273.835 95.8139 275.769 96.6179C277.703 97.4218 279.402 98.9411 280.535 100.881C281.702 102.824 282.211 105.065 281.961 107.157C281.71 109.249 280.718 111.037 279.184 112.162L278.583 112.61ZM269.569 105.189C272.125 106.544 274.755 107.656 277.425 108.513C278.134 107.722 278.511 106.63 278.485 105.439C278.459 104.249 278.032 103.043 277.284 102.045C276.536 101.048 275.518 100.328 274.42 100.019C273.322 99.7108 272.219 99.8351 271.318 100.369C270.591 100.822 270.037 101.521 269.724 102.379C269.412 103.237 269.354 104.215 269.559 105.194L269.569 105.189Z" fill="#1E0505"/>
<path d="M292.759 31.734C292.391 31.5213 292.038 31.2906 291.694 31.0526C291.404 33.1791 290.709 35.2852 289.569 37.2597C284.871 45.3972 274.464 48.1858 266.326 43.4875C261.915 40.9406 259.081 36.7161 258.153 32.0866C255.492 36.1598 250.446 37.8481 245.947 36.3709C245.522 37.0266 245.111 37.6957 244.717 38.379C232.383 59.7415 239.702 87.0574 261.065 99.391C282.427 111.725 309.743 104.405 322.077 83.0429C332.96 64.1928 328.538 40.7107 312.672 26.973C308.386 33.5581 299.644 35.709 292.759 31.734Z" fill="#FDD198"/>
<path d="M288.161 116.264C289.043 114.737 290.994 114.216 292.519 115.096C294.044 115.977 294.568 117.927 293.687 119.454C292.806 120.979 290.854 121.503 289.329 120.622C287.804 119.741 287.281 117.789 288.161 116.264Z" fill="#3ABEFF"/>
<path d="M307.455 48.8156C308.924 46.272 312.175 45.4008 314.719 46.8694C317.262 48.338 318.134 51.5891 316.665 54.1328C315.196 56.6766 311.945 57.5476 309.402 56.079C306.858 54.6104 305.987 51.3595 307.455 48.8156Z" fill="#FF8A26"/>
<path d="M262.698 88.055C263.873 86.0196 266.474 85.3229 268.509 86.498C270.544 87.6731 271.241 90.2733 270.066 92.3087C268.892 94.3421 266.29 95.0407 264.255 93.8656C262.22 92.6905 261.524 90.0884 262.698 88.055Z" fill="#FF8A26"/>
<path d="M267.028 63.5398C268.203 61.5045 270.803 60.8078 272.838 61.9829C274.874 63.1579 275.57 65.7582 274.395 67.7935C273.221 69.827 270.62 70.5256 268.585 69.3505C266.549 68.1754 265.854 65.5733 267.028 63.5398Z" fill="#FF8A26"/>
<path d="M305.993 81.1251C308.343 77.0561 306.948 71.853 302.879 69.5038C298.81 67.1545 293.607 68.5487 291.258 72.6177C288.909 76.6867 290.303 81.8898 294.372 84.2391C298.441 86.5883 303.644 85.1942 305.993 81.1251Z" fill="#FF8A26"/>
<path d="M290.556 52.5634C289.969 53.5801 290.317 54.8817 291.334 55.4687C292.351 56.0557 293.652 55.707 294.239 54.6902C294.826 53.6735 294.478 52.3719 293.461 51.7849C292.444 51.1979 291.143 51.5466 290.556 52.5634Z" fill="#EF3734"/>
<path d="M313.438 68.2304C312.851 69.2471 313.2 70.5487 314.216 71.1357C315.233 71.7227 316.535 71.3739 317.122 70.3572C317.709 69.3405 317.36 68.0389 316.343 67.4519C315.327 66.8649 314.025 67.2136 313.438 68.2304Z" fill="#EF3734"/>
<path d="M251.438 69.2738C250.851 70.2905 251.2 71.5921 252.217 72.1791C253.234 72.7662 254.535 72.4174 255.122 71.4007C255.709 70.3839 255.36 69.0823 254.344 68.4953C253.327 67.9083 252.025 68.2571 251.438 69.2738Z" fill="#EF3734"/>
<path d="M280.909 86.288C280.322 87.3047 280.67 88.6063 281.687 89.1933C282.704 89.7803 284.005 89.4316 284.592 88.4148C285.179 87.3981 284.831 86.0965 283.814 85.5095C282.797 84.9225 281.496 85.2712 280.909 86.288Z" fill="#EF3734"/>
<rect x="224.378" y="74.0747" width="126.459" height="126.459" rx="16" fill="#40E0D0"/>
<path d="M224.378 90.0747C224.378 81.2381 231.541 74.0747 240.378 74.0747H336.786V170.482C336.786 179.319 329.622 186.482 320.786 186.482H224.378V90.0747Z" fill="#7DEFE4"/>
<path d="M270.043 74.0747H298.145V100.177C298.145 101.281 297.249 102.177 296.145 102.177H272.043C270.938 102.177 270.043 101.281 270.043 100.177V74.0747Z" fill="#40E0D0"/>
<path d="M173.955 95.0308C176.84 93.3182 178.138 90.1756 176.853 88.0116C175.569 85.8477 172.189 85.4818 169.303 87.1944C166.418 88.9071 165.12 92.0496 166.405 94.2136C167.689 96.3776 171.07 96.7434 173.955 95.0308Z" fill="#AD5A1C"/>
<path d="M175.532 93.6188C176.033 92.9774 176.402 92.237 176.617 91.4402C176.832 90.6433 176.889 89.8055 176.785 88.9748C176.681 88.144 176.418 87.3366 176.011 86.5988C175.604 85.8609 175.061 85.207 174.413 84.6746C174.33 84.5356 174.129 84.5011 174.005 84.4035C171.752 87.8456 169.136 91.0201 166.203 93.8733C166.392 94.0788 166.59 94.2748 166.798 94.4604C168.107 95.5306 169.762 96.0428 171.399 95.8851C173.035 95.7274 174.522 94.9124 175.532 93.6188Z" fill="#874315"/>
<path d="M175.252 94.2594C174.06 94.9652 172.737 95.3967 171.425 95.5073C170.114 95.6179 168.863 95.4033 167.81 94.8868C166.757 94.3702 165.941 93.5715 165.45 92.5768C164.959 91.5822 164.812 90.4297 165.025 89.2438C165.238 88.058 165.803 86.8841 166.658 85.8492C167.514 84.8142 168.628 83.9576 169.879 83.372C171.13 82.7865 172.471 82.4943 173.757 82.527C175.043 82.5597 176.225 82.9162 177.175 83.5578C177.858 84.0204 178.405 84.6201 178.785 85.3225C179.164 86.0249 179.368 86.8163 179.385 87.6514C179.402 88.4866 179.232 89.3491 178.884 90.1898C178.536 91.0306 178.018 91.833 177.358 92.5512C176.757 93.2146 176.043 93.7939 175.252 94.2594ZM170.633 86.4766C170.251 86.7033 169.907 86.9851 169.619 87.3075C169.016 87.9725 168.673 88.771 168.656 89.5459C168.639 90.3208 168.95 91.0162 169.528 91.4954C170.105 91.9746 170.908 92.2029 171.777 92.1354C172.647 92.0679 173.52 91.7096 174.227 91.1308C174.933 90.552 175.421 89.7947 175.594 89.0076C175.767 88.2205 175.614 87.4606 175.163 86.8773C174.713 86.294 173.998 85.9295 173.16 85.8553C172.321 85.7811 171.42 86.0028 170.633 86.4766Z" fill="#1E0505"/>
<path d="M134.688 106.244C137.691 107.586 140.839 108.59 144.071 109.236C144.995 108.574 145.718 107.671 146.16 106.628C146.602 105.585 146.746 104.443 146.576 103.329C146.406 102.215 145.928 101.172 145.196 100.317C144.464 99.4611 143.507 98.8264 142.43 98.483C141.353 98.1395 140.199 98.1009 139.096 98.3713C137.993 98.6417 136.984 99.2106 136.182 100.015C135.38 100.819 134.816 101.827 134.552 102.926C134.288 104.026 134.335 105.174 134.688 106.244Z" fill="#AD5A1C"/>
<path d="M143.853 112.898L143.099 112.678C139.618 111.635 136.196 110.188 132.896 108.361L132.178 107.967L131.884 107.17C131.096 105.081 131.014 102.865 131.652 100.952C132.291 99.0392 133.605 97.5661 135.339 96.8185C137.074 96.0708 139.105 96.102 141.039 96.906C142.973 97.7099 144.672 99.2292 145.805 101.169C146.972 103.112 147.481 105.354 147.231 107.446C146.98 109.538 145.988 111.325 144.454 112.45L143.853 112.898ZM134.839 105.477C137.395 106.832 140.025 107.945 142.695 108.801C143.404 108.01 143.781 106.918 143.755 105.728C143.729 104.537 143.302 103.331 142.554 102.333C141.806 101.336 140.788 100.616 139.69 100.307C138.592 99.9989 137.489 100.123 136.588 100.657C135.861 101.111 135.307 101.809 134.994 102.667C134.682 103.525 134.624 104.504 134.829 105.482L134.839 105.477Z" fill="#1E0505"/>
<path d="M158.029 32.022C157.661 31.8094 157.308 31.5787 156.964 31.3406C156.674 33.4672 155.979 35.5732 154.839 37.5478C150.141 45.6853 139.734 48.4738 131.596 43.7756C127.185 41.2287 124.351 37.0042 123.423 32.3747C120.762 36.4478 115.716 38.1362 111.217 36.6589C110.792 37.3147 110.381 37.9837 109.987 38.6671C97.6531 60.0295 104.972 87.3455 126.335 99.6791C147.697 112.013 175.013 104.693 187.347 83.331C198.23 64.4809 193.808 40.9988 177.942 27.2611C173.656 33.8462 164.914 35.9971 158.029 32.022Z" fill="#FDD198"/>
<path d="M153.431 116.552C154.313 115.025 156.264 114.504 157.789 115.384C159.314 116.265 159.838 118.215 158.957 119.742C158.076 121.267 156.124 121.791 154.599 120.91C153.074 120.03 152.551 118.077 153.431 116.552Z" fill="#3ABEFF"/>
<path d="M172.725 49.1037C174.194 46.56 177.445 45.6889 179.989 47.1575C182.532 48.6261 183.404 51.8772 181.935 54.4209C180.466 56.9647 177.215 57.8357 174.672 56.3671C172.128 54.8985 171.257 51.6476 172.725 49.1037Z" fill="#FF8A26"/>
<path d="M127.968 88.343C129.143 86.3077 131.744 85.611 133.779 86.7861C135.814 87.9612 136.511 90.5614 135.336 92.5967C134.162 94.6302 131.56 95.3288 129.525 94.1537C127.49 92.9786 126.794 90.3765 127.968 88.343Z" fill="#FF8A26"/>
<path d="M132.298 63.8284C133.473 61.7931 136.073 61.0963 138.108 62.2714C140.144 63.4465 140.84 66.0468 139.665 68.0821C138.491 70.1156 135.89 70.8141 133.855 69.6391C131.819 68.464 131.124 65.8619 132.298 63.8284Z" fill="#FF8A26"/>
<path d="M171.264 81.4132C173.613 77.3442 172.219 72.1411 168.15 69.7919C164.081 67.4426 158.878 68.8368 156.529 72.9058C154.179 76.9748 155.574 82.1779 159.643 84.5271C163.712 86.8764 168.915 85.4822 171.264 81.4132Z" fill="#FF8A26"/>
<path d="M155.825 52.8515C155.238 53.8682 155.587 55.1698 156.604 55.7568C157.62 56.3438 158.922 55.995 159.509 54.9783C160.096 53.9616 159.747 52.66 158.73 52.073C157.714 51.486 156.412 51.8347 155.825 52.8515Z" fill="#EF3734"/>
<path d="M178.708 68.5184C178.121 69.5352 178.47 70.8368 179.486 71.4238C180.503 72.0108 181.805 71.662 182.392 70.6453C182.979 69.6286 182.63 68.327 181.613 67.74C180.597 67.1529 179.295 67.5017 178.708 68.5184Z" fill="#EF3734"/>
<path d="M116.708 69.5619C116.121 70.5786 116.47 71.8802 117.487 72.4672C118.504 73.0542 119.805 72.7055 120.392 71.6888C120.979 70.672 120.631 69.3704 119.614 68.7834C118.597 68.1964 117.295 68.5452 116.708 69.5619Z" fill="#EF3734"/>
<path d="M146.178 86.5761C145.591 87.5928 145.94 88.8944 146.957 89.4814C147.973 90.0684 149.275 89.7196 149.862 88.7029C150.449 87.6862 150.1 86.3846 149.084 85.7976C148.067 85.2106 146.765 85.5593 146.178 86.5761Z" fill="#EF3734"/>
<rect x="89.6479" y="74.3628" width="126.459" height="126.459" rx="16" fill="#40E0D0"/>
<path d="M89.6479 90.3628C89.6479 81.5262 96.8114 74.3628 105.648 74.3628H202.056V170.77C202.056 179.607 194.892 186.77 186.056 186.77H89.6479V90.3628Z" fill="#7DEFE4"/>
<path d="M135.313 74.3628H163.415V100.465C163.415 101.569 162.519 102.465 161.415 102.465H137.313C136.208 102.465 135.313 101.569 135.313 100.465V74.3628Z" fill="#40E0D0"/>
<path d="M443.094 94.3443C445.979 92.6317 447.277 89.4891 445.992 87.3251C444.708 85.1612 441.328 84.7953 438.443 86.5079C435.557 88.2205 434.26 91.3631 435.544 93.5271C436.828 95.691 440.209 96.0569 443.094 94.3443Z" fill="#AD5A1C"/>
<path d="M444.671 92.9322C445.172 92.2908 445.541 91.5505 445.756 90.7537C445.971 89.9568 446.028 89.119 445.924 88.2883C445.82 87.4575 445.557 86.6501 445.15 85.9122C444.743 85.1744 444.2 84.5205 443.552 83.9881C443.469 83.849 443.268 83.8146 443.144 83.717C440.891 87.1591 438.275 90.3336 435.342 93.1868C435.531 93.3923 435.729 93.5882 435.937 93.7739C437.246 94.8441 438.901 95.3563 440.538 95.1986C442.175 95.0408 443.661 94.2259 444.671 92.9322Z" fill="#874315"/>
<path d="M444.392 93.5729C443.2 94.2787 441.877 94.7102 440.565 94.8208C439.253 94.9313 438.003 94.7168 436.95 94.2002C435.897 93.6837 435.08 92.8849 434.589 91.8903C434.099 90.8957 433.952 89.7431 434.165 88.5573C434.378 87.3715 434.943 86.1976 435.798 85.1626C436.654 84.1277 437.767 83.2711 439.018 82.6855C440.27 82.1 441.611 81.8077 442.897 81.8405C444.183 81.8732 445.365 82.2297 446.315 82.8712C446.998 83.3339 447.545 83.9336 447.924 84.636C448.303 85.3384 448.507 86.1297 448.524 86.9649C448.541 87.8 448.371 88.6626 448.023 89.5033C447.676 90.344 447.157 91.1464 446.498 91.8647C445.896 92.5281 445.182 93.1074 444.392 93.5729ZM439.772 85.7901C439.391 86.0168 439.047 86.2986 438.758 86.621C438.156 87.286 437.813 88.0844 437.796 88.8594C437.779 89.6343 438.09 90.3297 438.667 90.8089C439.245 91.288 440.047 91.5163 440.917 91.4489C441.786 91.3814 442.66 91.0231 443.366 90.4443C444.073 89.8655 444.56 89.1082 444.734 88.3211C444.907 87.534 444.753 86.7741 444.303 86.1908C443.852 85.6075 443.138 85.2429 442.299 85.1688C441.461 85.0946 440.56 85.3162 439.772 85.7901Z" fill="#1E0505"/>
<path d="M403.828 105.557C406.831 106.9 409.978 107.904 413.211 108.549C414.134 107.887 414.857 106.984 415.299 105.941C415.741 104.899 415.885 103.757 415.715 102.643C415.545 101.528 415.068 100.486 414.336 99.6301C413.604 98.7746 412.646 98.1399 411.569 97.7964C410.492 97.453 409.338 97.4144 408.236 97.6848C407.133 97.9552 406.124 98.5241 405.322 99.3282C404.52 100.132 403.955 101.14 403.692 102.24C403.428 103.34 403.475 104.488 403.828 105.557Z" fill="#AD5A1C"/>
<path d="M412.993 112.211L412.238 111.991C408.758 110.949 405.336 109.501 402.036 107.674L401.318 107.28L401.023 106.483C400.236 104.394 400.153 102.178 400.792 100.265C401.431 98.3527 402.744 96.8796 404.479 96.1319C406.213 95.3843 408.245 95.4155 410.179 96.2194C412.113 97.0234 413.811 98.5427 414.945 100.483C416.112 102.425 416.621 104.667 416.37 106.759C416.12 108.851 415.128 110.639 413.593 111.764L412.993 112.211ZM403.978 104.79C406.534 106.145 409.164 107.258 411.835 108.115C412.544 107.324 412.92 106.231 412.894 105.041C412.868 103.851 412.442 102.644 411.694 101.647C410.946 100.65 409.928 99.9293 408.83 99.6208C407.732 99.3123 406.629 99.4366 405.727 99.9705C405 100.424 404.446 101.123 404.134 101.981C403.821 102.838 403.764 103.817 403.969 104.796L403.978 104.79Z" fill="#1E0505"/>
<path d="M427.169 31.335C426.8 31.1224 426.447 30.8917 426.103 30.6536C425.814 32.7802 425.118 34.8862 423.978 36.8608C419.28 44.9983 408.873 47.7868 400.736 43.0886C396.324 40.5417 393.491 36.3172 392.563 31.6877C389.902 35.7608 384.855 37.4492 380.357 35.9719C379.932 36.6277 379.521 37.2967 379.126 37.9801C366.793 59.3425 374.112 86.6585 395.475 98.9921C416.837 111.326 444.153 104.006 456.487 82.644C467.37 63.7939 462.948 40.3118 447.082 26.5741C442.796 33.1592 434.054 35.3101 427.169 31.335Z" fill="#FDD198"/>
<path d="M422.571 115.866C423.452 114.339 425.404 113.817 426.929 114.698C428.454 115.578 428.978 117.529 428.096 119.056C427.216 120.581 425.264 121.104 423.738 120.224C422.213 119.343 421.69 117.391 422.571 115.866Z" fill="#3ABEFF"/>
<path d="M441.865 48.4167C443.334 45.873 446.585 45.0019 449.128 46.4705C451.672 47.9391 452.543 51.1902 451.075 53.7338C449.606 56.2777 446.355 57.1486 443.811 55.68C441.268 54.2115 440.396 50.9606 441.865 48.4167Z" fill="#FF8A26"/>
<path d="M397.108 87.6565C398.283 85.6212 400.883 84.9245 402.918 86.0996C404.954 87.2746 405.651 89.8749 404.475 91.9102C403.301 93.9437 400.7 94.6423 398.665 93.4672C396.629 92.2921 395.934 89.69 397.108 87.6565Z" fill="#FF8A26"/>
<path d="M401.437 63.1414C402.612 61.1061 405.213 60.4093 407.248 61.5844C409.283 62.7595 409.98 65.3598 408.805 67.3951C407.631 69.4286 405.03 70.1271 402.994 68.952C400.959 67.777 400.263 65.1748 401.437 63.1414Z" fill="#FF8A26"/>
<path d="M440.404 80.7267C442.753 76.6577 441.359 71.4546 437.29 69.1054C433.221 66.7561 428.018 68.1502 425.668 72.2193C423.319 76.2883 424.713 81.4914 428.782 83.8406C432.851 86.1899 438.054 84.7957 440.404 80.7267Z" fill="#FF8A26"/>
<path d="M424.965 52.1649C424.378 53.1817 424.727 54.4833 425.743 55.0703C426.76 55.6573 428.062 55.3085 428.649 54.2918C429.236 53.275 428.887 51.9735 427.87 51.3864C426.853 50.7994 425.552 51.1482 424.965 52.1649Z" fill="#EF3734"/>
<path d="M447.847 67.8319C447.26 68.8487 447.609 70.1502 448.626 70.7373C449.642 71.3243 450.944 70.9755 451.531 69.9588C452.118 68.942 451.769 67.6404 450.752 67.0534C449.736 66.4664 448.434 66.8152 447.847 67.8319Z" fill="#EF3734"/>
<path d="M385.847 68.8749C385.26 69.8916 385.609 71.1932 386.626 71.7802C387.642 72.3672 388.944 72.0185 389.531 71.0017C390.118 69.985 389.769 68.6834 388.752 68.0964C387.736 67.5094 386.434 67.8582 385.847 68.8749Z" fill="#EF3734"/>
<path d="M415.318 85.889C414.731 86.9058 415.08 88.2074 416.097 88.7944C417.114 89.3814 418.415 89.0326 419.002 88.0159C419.589 86.9992 419.24 85.6976 418.224 85.1106C417.207 84.5236 415.905 84.8723 415.318 85.889Z" fill="#EF3734"/>
<rect x="358.787" y="73.6758" width="126.459" height="126.459" rx="16" fill="#40E0D0"/>
<path d="M358.787 89.6758C358.787 80.8392 365.95 73.6758 374.787 73.6758H471.194V170.083C471.194 178.92 464.031 186.083 455.194 186.083H358.787V89.6758Z" fill="#7DEFE4"/>
<path d="M404.453 73.6758H432.555V99.7777C432.555 100.882 431.659 101.778 430.555 101.778H406.453C405.348 101.778 404.453 100.882 404.453 99.7777V73.6758Z" fill="#40E0D0"/>
<defs>
<filter id="filter0_d_802_23" x="0" y="200.338" width="570.038" height="190.662" filterUnits="userSpaceOnUse" color-interpolation-filters="sRGB">
<feFlood flood-opacity="0" result="BackgroundImageFix"/>
<feColorMatrix in="SourceAlpha" type="matrix" values="0 0 0 0 0 0 0 0 0 0 0 0 0 0 0 0 0 0 127 0" result="hardAlpha"/>
<feOffset dy="4"/>
<feGaussianBlur stdDeviation="2"/>
<feComposite in2="hardAlpha" operator="out"/>
<feColorMatrix type="matrix" values="0 0 0 0 0 0 0 0 0 0 0 0 0 0 0 0 0 0 0.1 0"/>
<feBlend mode="normal" in2="BackgroundImageFix" result="effect1_dropShadow_802_23"/>
<feBlend mode="normal" in="SourceGraphic" in2="effect1_dropShadow_802_23" result="shape"/>
</filter>
<filter id="filter1_d_802_23" x="70.2544" y="246.003" width="443.58" height="95.8184" filterUnits="userSpaceOnUse" color-interpolation-filters="sRGB">
<feFlood flood-opacity="0" result="BackgroundImageFix"/>
<feColorMatrix in="SourceAlpha" type="matrix" values="0 0 0 0 0 0 0 0 0 0 0 0 0 0 0 0 0 0 127 0" result="hardAlpha"/>
<feOffset dy="4"/>
<feGaussianBlur stdDeviation="2"/>
<feComposite in2="hardAlpha" operator="out"/>
<feColorMatrix type="matrix" values="0 0 0 0 0 0 0 0 0 0 0 0 0 0 0 0 0 0 0.25 0"/>
<feBlend mode="normal" in2="BackgroundImageFix" result="effect1_dropShadow_802_23"/>
<feBlend mode="normal" in="SourceGraphic" in2="effect1_dropShadow_802_23" result="shape"/>
</filter>
<filter id="filter2_d_802_23" x="70.2544" y="246.003" width="95.8184" height="95.8184" filterUnits="userSpaceOnUse" color-interpolation-filters="sRGB">
<feFlood flood-opacity="0" result="BackgroundImageFix"/>
<feColorMatrix in="SourceAlpha" type="matrix" values="0 0 0 0 0 0 0 0 0 0 0 0 0 0 0 0 0 0 127 0" result="hardAlpha"/>
<feOffset dy="4"/>
<feGaussianBlur stdDeviation="2"/>
<feComposite in2="hardAlpha" operator="out"/>
<feColorMatrix type="matrix" values="0 0 0 0 0 0 0 0 0 0 0 0 0 0 0 0 0 0 0.25 0"/>
<feBlend mode="normal" in2="BackgroundImageFix" result="effect1_dropShadow_802_23"/>
<feBlend mode="normal" in="SourceGraphic" in2="effect1_dropShadow_802_23" result="shape"/>
</filter>
<filter id="filter3_d_802_23" x="186.175" y="246.003" width="95.8184" height="95.8184" filterUnits="userSpaceOnUse" color-interpolation-filters="sRGB">
<feFlood flood-opacity="0" result="BackgroundImageFix"/>
<feColorMatrix in="SourceAlpha" type="matrix" values="0 0 0 0 0 0 0 0 0 0 0 0 0 0 0 0 0 0 127 0" result="hardAlpha"/>
<feOffset dy="4"/>
<feGaussianBlur stdDeviation="2"/>
<feComposite in2="hardAlpha" operator="out"/>
<feColorMatrix type="matrix" values="0 0 0 0 0 0 0 0 0 0 0 0 0 0 0 0 0 0 0.25 0"/>
<feBlend mode="normal" in2="BackgroundImageFix" result="effect1_dropShadow_802_23"/>
<feBlend mode="normal" in="SourceGraphic" in2="effect1_dropShadow_802_23" result="shape"/>
</filter>
<filter id="filter4_d_802_23" x="302.095" y="246.003" width="95.8184" height="95.8184" filterUnits="userSpaceOnUse" color-interpolation-filters="sRGB">
<feFlood flood-opacity="0" result="BackgroundImageFix"/>
<feColorMatrix in="SourceAlpha" type="matrix" values="0 0 0 0 0 0 0 0 0 0 0 0 0 0 0 0 0 0 127 0" result="hardAlpha"/>
<feOffset dy="4"/>
<feGaussianBlur stdDeviation="2"/>
<feComposite in2="hardAlpha" operator="out"/>
<feColorMatrix type="matrix" values="0 0 0 0 0 0 0 0 0 0 0 0 0 0 0 0 0 0 0.25 0"/>
<feBlend mode="normal" in2="BackgroundImageFix" result="effect1_dropShadow_802_23"/>
<feBlend mode="normal" in="SourceGraphic" in2="effect1_dropShadow_802_23" result="shape"/>
</filter>
<filter id="filter5_d_802_23" x="418.016" y="246.003" width="95.8184" height="95.8184" filterUnits="userSpaceOnUse" color-interpolation-filters="sRGB">
<feFlood flood-opacity="0" result="BackgroundImageFix"/>
<feColorMatrix in="SourceAlpha" type="matrix" values="0 0 0 0 0 0 0 0 0 0 0 0 0 0 0 0 0 0 127 0" result="hardAlpha"/>
<feOffset dy="4"/>
<feGaussianBlur stdDeviation="2"/>
<feComposite in2="hardAlpha" operator="out"/>
<feColorMatrix type="matrix" values="0 0 0 0 0 0 0 0 0 0 0 0 0 0 0 0 0 0 0.25 0"/>
<feBlend mode="normal" in2="BackgroundImageFix" result="effect1_dropShadow_802_23"/>
<feBlend mode="normal" in="SourceGraphic" in2="effect1_dropShadow_802_23" result="shape"/>
</filter>
<filter id="filter6_d_802_23" x="112.408" y="270.593" width="11.5127" height="11.5127" filterUnits="userSpaceOnUse" color-interpolation-filters="sRGB">
<feFlood flood-opacity="0" result="BackgroundImageFix"/>
<feColorMatrix in="SourceAlpha" type="matrix" values="0 0 0 0 0 0 0 0 0 0 0 0 0 0 0 0 0 0 127 0" result="hardAlpha"/>
<feOffset dy="4"/>
<feGaussianBlur stdDeviation="2"/>
<feComposite in2="hardAlpha" operator="out"/>
<feColorMatrix type="matrix" values="0 0 0 0 0 0 0 0 0 0 0 0 0 0 0 0 0 0 0.25 0"/>
<feBlend mode="normal" in2="BackgroundImageFix" result="effect1_dropShadow_802_23"/>
<feBlend mode="normal" in="SourceGraphic" in2="effect1_dropShadow_802_23" result="shape"/>
</filter>
<filter id="filter7_d_802_23" x="228.328" y="270.593" width="11.5127" height="11.5127" filterUnits="userSpaceOnUse" color-interpolation-filters="sRGB">
<feFlood flood-opacity="0" result="BackgroundImageFix"/>
<feColorMatrix in="SourceAlpha" type="matrix" values="0 0 0 0 0 0 0 0 0 0 0 0 0 0 0 0 0 0 127 0" result="hardAlpha"/>
<feOffset dy="4"/>
<feGaussianBlur stdDeviation="2"/>
<feComposite in2="hardAlpha" operator="out"/>
<feColorMatrix type="matrix" values="0 0 0 0 0 0 0 0 0 0 0 0 0 0 0 0 0 0 0.25 0"/>
<feBlend mode="normal" in2="BackgroundImageFix" result="effect1_dropShadow_802_23"/>
<feBlend mode="normal" in="SourceGraphic" in2="effect1_dropShadow_802_23" result="shape"/>
</filter>
<filter id="filter8_d_802_23" x="344.249" y="270.593" width="11.5127" height="11.5127" filterUnits="userSpaceOnUse" color-interpolation-filters="sRGB">
<feFlood flood-opacity="0" result="BackgroundImageFix"/>
<feColorMatrix in="SourceAlpha" type="matrix" values="0 0 0 0 0 0 0 0 0 0 0 0 0 0 0 0 0 0 127 0" result="hardAlpha"/>
<feOffset dy="4"/>
<feGaussianBlur stdDeviation="2"/>
<feComposite in2="hardAlpha" operator="out"/>
<feColorMatrix type="matrix" values="0 0 0 0 0 0 0 0 0 0 0 0 0 0 0 0 0 0 0.25 0"/>
<feBlend mode="normal" in2="BackgroundImageFix" result="effect1_dropShadow_802_23"/>
<feBlend mode="normal" in="SourceGraphic" in2="effect1_dropShadow_802_23" result="shape"/>
</filter>
<filter id="filter9_d_802_23" x="460.169" y="270.593" width="11.5127" height="11.5127" filterUnits="userSpaceOnUse" color-interpolation-filters="sRGB">
<feFlood flood-opacity="0" result="BackgroundImageFix"/>
<feColorMatrix in="SourceAlpha" type="matrix" values="0 0 0 0 0 0 0 0 0 0 0 0 0 0 0 0 0 0 127 0" result="hardAlpha"/>
<feOffset dy="4"/>
<feGaussianBlur stdDeviation="2"/>
<feComposite in2="hardAlpha" operator="out"/>
<feColorMatrix type="matrix" values="0 0 0 0 0 0 0 0 0 0 0 0 0 0 0 0 0 0 0.25 0"/>
<feBlend mode="normal" in2="BackgroundImageFix" result="effect1_dropShadow_802_23"/>
<feBlend mode="normal" in="SourceGraphic" in2="effect1_dropShadow_802_23" result="shape"/>
</filter>
<filter id="filter10_d_802_23" x="126.458" y="277.618" width="15.0254" height="15.0254" filterUnits="userSpaceOnUse" color-interpolation-filters="sRGB">
<feFlood flood-opacity="0" result="BackgroundImageFix"/>
<feColorMatrix in="SourceAlpha" type="matrix" values="0 0 0 0 0 0 0 0 0 0 0 0 0 0 0 0 0 0 127 0" result="hardAlpha"/>
<feOffset dy="4"/>
<feGaussianBlur stdDeviation="2"/>
<feComposite in2="hardAlpha" operator="out"/>
<feColorMatrix type="matrix" values="0 0 0 0 0 0 0 0 0 0 0 0 0 0 0 0 0 0 0.25 0"/>
<feBlend mode="normal" in2="BackgroundImageFix" result="effect1_dropShadow_802_23"/>
<feBlend mode="normal" in="SourceGraphic" in2="effect1_dropShadow_802_23" result="shape"/>
</filter>
<filter id="filter11_d_802_23" x="245.892" y="277.618" width="11.5127" height="15.0254" filterUnits="userSpaceOnUse" color-interpolation-filters="sRGB">
<feFlood flood-opacity="0" result="BackgroundImageFix"/>
<feColorMatrix in="SourceAlpha" type="matrix" values="0 0 0 0 0 0 0 0 0 0 0 0 0 0 0 0 0 0 127 0" result="hardAlpha"/>
<feOffset dy="4"/>
<feGaussianBlur stdDeviation="2"/>
<feComposite in2="hardAlpha" operator="out"/>
<feColorMatrix type="matrix" values="0 0 0 0 0 0 0 0 0 0 0 0 0 0 0 0 0 0 0.25 0"/>
<feBlend mode="normal" in2="BackgroundImageFix" result="effect1_dropShadow_802_23"/>
<feBlend mode="normal" in="SourceGraphic" in2="effect1_dropShadow_802_23" result="shape"/>
</filter>
<filter id="filter12_d_802_23" x="361.812" y="277.618" width="11.5127" height="15.0254" filterUnits="userSpaceOnUse" color-interpolation-filters="sRGB">
<feFlood flood-opacity="0" result="BackgroundImageFix"/>
<feColorMatrix in="SourceAlpha" type="matrix" values="0 0 0 0 0 0 0 0 0 0 0 0 0 0 0 0 0 0 127 0" result="hardAlpha"/>
<feOffset dy="4"/>
<feGaussianBlur stdDeviation="2"/>
<feComposite in2="hardAlpha" operator="out"/>
<feColorMatrix type="matrix" values="0 0 0 0 0 0 0 0 0 0 0 0 0 0 0 0 0 0 0.25 0"/>
<feBlend mode="normal" in2="BackgroundImageFix" result="effect1_dropShadow_802_23"/>
<feBlend mode="normal" in="SourceGraphic" in2="effect1_dropShadow_802_23" result="shape"/>
</filter>
<filter id="filter13_d_802_23" x="474.22" y="277.618" width="11.5127" height="15.0254" filterUnits="userSpaceOnUse" color-interpolation-filters="sRGB">
<feFlood flood-opacity="0" result="BackgroundImageFix"/>
<feColorMatrix in="SourceAlpha" type="matrix" values="0 0 0 0 0 0 0 0 0 0 0 0 0 0 0 0 0 0 127 0" result="hardAlpha"/>
<feOffset dy="4"/>
<feGaussianBlur stdDeviation="2"/>
<feComposite in2="hardAlpha" operator="out"/>
<feColorMatrix type="matrix" values="0 0 0 0 0 0 0 0 0 0 0 0 0 0 0 0 0 0 0.25 0"/>
<feBlend mode="normal" in2="BackgroundImageFix" result="effect1_dropShadow_802_23"/>
<feBlend mode="normal" in="SourceGraphic" in2="effect1_dropShadow_802_23" result="shape"/>
</filter>
<filter id="filter14_d_802_23" x="126.458" y="295.182" width="15.0254" height="15.0254" filterUnits="userSpaceOnUse" color-interpolation-filters="sRGB">
<feFlood flood-opacity="0" result="BackgroundImageFix"/>
<feColorMatrix in="SourceAlpha" type="matrix" values="0 0 0 0 0 0 0 0 0 0 0 0 0 0 0 0 0 0 127 0" result="hardAlpha"/>
<feOffset dy="4"/>
<feGaussianBlur stdDeviation="2"/>
<feComposite in2="hardAlpha" operator="out"/>
<feColorMatrix type="matrix" values="0 0 0 0 0 0 0 0 0 0 0 0 0 0 0 0 0 0 0.25 0"/>
<feBlend mode="normal" in2="BackgroundImageFix" result="effect1_dropShadow_802_23"/>
<feBlend mode="normal" in="SourceGraphic" in2="effect1_dropShadow_802_23" result="shape"/>
</filter>
<filter id="filter15_d_802_23" x="245.892" y="295.182" width="11.5127" height="15.0254" filterUnits="userSpaceOnUse" color-interpolation-filters="sRGB">
<feFlood flood-opacity="0" result="BackgroundImageFix"/>
<feColorMatrix in="SourceAlpha" type="matrix" values="0 0 0 0 0 0 0 0 0 0 0 0 0 0 0 0 0 0 127 0" result="hardAlpha"/>
<feOffset dy="4"/>
<feGaussianBlur stdDeviation="2"/>
<feComposite in2="hardAlpha" operator="out"/>
<feColorMatrix type="matrix" values="0 0 0 0 0 0 0 0 0 0 0 0 0 0 0 0 0 0 0.25 0"/>
<feBlend mode="normal" in2="BackgroundImageFix" result="effect1_dropShadow_802_23"/>
<feBlend mode="normal" in="SourceGraphic" in2="effect1_dropShadow_802_23" result="shape"/>
</filter>
<filter id="filter16_d_802_23" x="361.812" y="295.182" width="11.5127" height="15.0254" filterUnits="userSpaceOnUse" color-interpolation-filters="sRGB">
<feFlood flood-opacity="0" result="BackgroundImageFix"/>
<feColorMatrix in="SourceAlpha" type="matrix" values="0 0 0 0 0 0 0 0 0 0 0 0 0 0 0 0 0 0 127 0" result="hardAlpha"/>
<feOffset dy="4"/>
<feGaussianBlur stdDeviation="2"/>
<feComposite in2="hardAlpha" operator="out"/>
<feColorMatrix type="matrix" values="0 0 0 0 0 0 0 0 0 0 0 0 0 0 0 0 0 0 0.25 0"/>
<feBlend mode="normal" in2="BackgroundImageFix" result="effect1_dropShadow_802_23"/>
<feBlend mode="normal" in="SourceGraphic" in2="effect1_dropShadow_802_23" result="shape"/>
</filter>
<filter id="filter17_d_802_23" x="474.22" y="295.182" width="11.5127" height="15.0254" filterUnits="userSpaceOnUse" color-interpolation-filters="sRGB">
<feFlood flood-opacity="0" result="BackgroundImageFix"/>
<feColorMatrix in="SourceAlpha" type="matrix" values="0 0 0 0 0 0 0 0 0 0 0 0 0 0 0 0 0 0 127 0" result="hardAlpha"/>
<feOffset dy="4"/>
<feGaussianBlur stdDeviation="2"/>
<feComposite in2="hardAlpha" operator="out"/>
<feColorMatrix type="matrix" values="0 0 0 0 0 0 0 0 0 0 0 0 0 0 0 0 0 0 0.25 0"/>
<feBlend mode="normal" in2="BackgroundImageFix" result="effect1_dropShadow_802_23"/>
<feBlend mode="normal" in="SourceGraphic" in2="effect1_dropShadow_802_23" result="shape"/>
</filter>
<filter id="filter18_d_802_23" x="112.408" y="305.72" width="11.5127" height="11.5127" filterUnits="userSpaceOnUse" color-interpolation-filters="sRGB">
<feFlood flood-opacity="0" result="BackgroundImageFix"/>
<feColorMatrix in="SourceAlpha" type="matrix" values="0 0 0 0 0 0 0 0 0 0 0 0 0 0 0 0 0 0 127 0" result="hardAlpha"/>
<feOffset dy="4"/>
<feGaussianBlur stdDeviation="2"/>
<feComposite in2="hardAlpha" operator="out"/>
<feColorMatrix type="matrix" values="0 0 0 0 0 0 0 0 0 0 0 0 0 0 0 0 0 0 0.25 0"/>
<feBlend mode="normal" in2="BackgroundImageFix" result="effect1_dropShadow_802_23"/>
<feBlend mode="normal" in="SourceGraphic" in2="effect1_dropShadow_802_23" result="shape"/>
</filter>
<filter id="filter19_d_802_23" x="228.328" y="305.72" width="15.0254" height="11.5127" filterUnits="userSpaceOnUse" color-interpolation-filters="sRGB">
<feFlood flood-opacity="0" result="BackgroundImageFix"/>
<feColorMatrix in="SourceAlpha" type="matrix" values="0 0 0 0 0 0 0 0 0 0 0 0 0 0 0 0 0 0 127 0" result="hardAlpha"/>
<feOffset dy="4"/>
<feGaussianBlur stdDeviation="2"/>
<feComposite in2="hardAlpha" operator="out"/>
<feColorMatrix type="matrix" values="0 0 0 0 0 0 0 0 0 0 0 0 0 0 0 0 0 0 0.25 0"/>
<feBlend mode="normal" in2="BackgroundImageFix" result="effect1_dropShadow_802_23"/>
<feBlend mode="normal" in="SourceGraphic" in2="effect1_dropShadow_802_23" result="shape"/>
</filter>
<filter id="filter20_d_802_23" x="344.249" y="305.72" width="11.5127" height="11.5127" filterUnits="userSpaceOnUse" color-interpolation-filters="sRGB">
<feFlood flood-opacity="0" result="BackgroundImageFix"/>
<feColorMatrix in="SourceAlpha" type="matrix" values="0 0 0 0 0 0 0 0 0 0 0 0 0 0 0 0 0 0 127 0" result="hardAlpha"/>
<feOffset dy="4"/>
<feGaussianBlur stdDeviation="2"/>
<feComposite in2="hardAlpha" operator="out"/>
<feColorMatrix type="matrix" values="0 0 0 0 0 0 0 0 0 0 0 0 0 0 0 0 0 0 0.25 0"/>
<feBlend mode="normal" in2="BackgroundImageFix" result="effect1_dropShadow_802_23"/>
<feBlend mode="normal" in="SourceGraphic" in2="effect1_dropShadow_802_23" result="shape"/>
</filter>
<filter id="filter21_d_802_23" x="460.169" y="305.72" width="11.5127" height="11.5127" filterUnits="userSpaceOnUse" color-interpolation-filters="sRGB">
<feFlood flood-opacity="0" result="BackgroundImageFix"/>
<feColorMatrix in="SourceAlpha" type="matrix" values="0 0 0 0 0 0 0 0 0 0 0 0 0 0 0 0 0 0 127 0" result="hardAlpha"/>
<feOffset dy="4"/>
<feGaussianBlur stdDeviation="2"/>
<feComposite in2="hardAlpha" operator="out"/>
<feColorMatrix type="matrix" values="0 0 0 0 0 0 0 0 0 0 0 0 0 0 0 0 0 0 0.25 0"/>
<feBlend mode="normal" in2="BackgroundImageFix" result="effect1_dropShadow_802_23"/>
<feBlend mode="normal" in="SourceGraphic" in2="effect1_dropShadow_802_23" result="shape"/>
</filter>
<filter id="filter22_d_802_23" x="94.8438" y="298.695" width="15.0254" height="11.5127" filterUnits="userSpaceOnUse" color-interpolation-filters="sRGB">
<feFlood flood-opacity="0" result="BackgroundImageFix"/>
<feColorMatrix in="SourceAlpha" type="matrix" values="0 0 0 0 0 0 0 0 0 0 0 0 0 0 0 0 0 0 127 0" result="hardAlpha"/>
<feOffset dy="4"/>
<feGaussianBlur stdDeviation="2"/>
<feComposite in2="hardAlpha" operator="out"/>
<feColorMatrix type="matrix" values="0 0 0 0 0 0 0 0 0 0 0 0 0 0 0 0 0 0 0.25 0"/>
<feBlend mode="normal" in2="BackgroundImageFix" result="effect1_dropShadow_802_23"/>
<feBlend mode="normal" in="SourceGraphic" in2="effect1_dropShadow_802_23" result="shape"/>
</filter>
<filter id="filter23_d_802_23" x="214.277" y="298.695" width="11.5127" height="11.5127" filterUnits="userSpaceOnUse" color-interpolation-filters="sRGB">
<feFlood flood-opacity="0" result="BackgroundImageFix"/>
<feColorMatrix in="SourceAlpha" type="matrix" values="0 0 0 0 0 0 0 0 0 0 0 0 0 0 0 0 0 0 127 0" result="hardAlpha"/>
<feOffset dy="4"/>
<feGaussianBlur stdDeviation="2"/>
<feComposite in2="hardAlpha" operator="out"/>
<feColorMatrix type="matrix" values="0 0 0 0 0 0 0 0 0 0 0 0 0 0 0 0 0 0 0.25 0"/>
<feBlend mode="normal" in2="BackgroundImageFix" result="effect1_dropShadow_802_23"/>
<feBlend mode="normal" in="SourceGraphic" in2="effect1_dropShadow_802_23" result="shape"/>
</filter>
<filter id="filter24_d_802_23" x="330.197" y="298.695" width="11.5127" height="11.5127" filterUnits="userSpaceOnUse" color-interpolation-filters="sRGB">
<feFlood flood-opacity="0" result="BackgroundImageFix"/>
<feColorMatrix in="SourceAlpha" type="matrix" values="0 0 0 0 0 0 0 0 0 0 0 0 0 0 0 0 0 0 127 0" result="hardAlpha"/>
<feOffset dy="4"/>
<feGaussianBlur stdDeviation="2"/>
<feComposite in2="hardAlpha" operator="out"/>
<feColorMatrix type="matrix" values="0 0 0 0 0 0 0 0 0 0 0 0 0 0 0 0 0 0 0.25 0"/>
<feBlend mode="normal" in2="BackgroundImageFix" result="effect1_dropShadow_802_23"/>
<feBlend mode="normal" in="SourceGraphic" in2="effect1_dropShadow_802_23" result="shape"/>
</filter>
<filter id="filter25_d_802_23" x="442.605" y="298.695" width="11.5127" height="11.5127" filterUnits="userSpaceOnUse" color-interpolation-filters="sRGB">
<feFlood flood-opacity="0" result="BackgroundImageFix"/>
<feColorMatrix in="SourceAlpha" type="matrix" values="0 0 0 0 0 0 0 0 0 0 0 0 0 0 0 0 0 0 127 0" result="hardAlpha"/>
<feOffset dy="4"/>
<feGaussianBlur stdDeviation="2"/>
<feComposite in2="hardAlpha" operator="out"/>
<feColorMatrix type="matrix" values="0 0 0 0 0 0 0 0 0 0 0 0 0 0 0 0 0 0 0.25 0"/>
<feBlend mode="normal" in2="BackgroundImageFix" result="effect1_dropShadow_802_23"/>
<feBlend mode="normal" in="SourceGraphic" in2="effect1_dropShadow_802_23" result="shape"/>
</filter>
<filter id="filter26_d_802_23" x="94.8438" y="277.618" width="15.0254" height="15.0254" filterUnits="userSpaceOnUse" color-interpolation-filters="sRGB">
<feFlood flood-opacity="0" result="BackgroundImageFix"/>
<feColorMatrix in="SourceAlpha" type="matrix" values="0 0 0 0 0 0 0 0 0 0 0 0 0 0 0 0 0 0 127 0" result="hardAlpha"/>
<feOffset dy="4"/>
<feGaussianBlur stdDeviation="2"/>
<feComposite in2="hardAlpha" operator="out"/>
<feColorMatrix type="matrix" values="0 0 0 0 0 0 0 0 0 0 0 0 0 0 0 0 0 0 0.25 0"/>
<feBlend mode="normal" in2="BackgroundImageFix" result="effect1_dropShadow_802_23"/>
<feBlend mode="normal" in="SourceGraphic" in2="effect1_dropShadow_802_23" result="shape"/>
</filter>
<filter id="filter27_d_802_23" x="214.277" y="277.618" width="11.5127" height="15.0254" filterUnits="userSpaceOnUse" color-interpolation-filters="sRGB">
<feFlood flood-opacity="0" result="BackgroundImageFix"/>
<feColorMatrix in="SourceAlpha" type="matrix" values="0 0 0 0 0 0 0 0 0 0 0 0 0 0 0 0 0 0 127 0" result="hardAlpha"/>
<feOffset dy="4"/>
<feGaussianBlur stdDeviation="2"/>
<feComposite in2="hardAlpha" operator="out"/>
<feColorMatrix type="matrix" values="0 0 0 0 0 0 0 0 0 0 0 0 0 0 0 0 0 0 0.25 0"/>
<feBlend mode="normal" in2="BackgroundImageFix" result="effect1_dropShadow_802_23"/>
<feBlend mode="normal" in="SourceGraphic" in2="effect1_dropShadow_802_23" result="shape"/>
</filter>
<filter id="filter28_d_802_23" x="330.197" y="277.618" width="11.5127" height="15.0254" filterUnits="userSpaceOnUse" color-interpolation-filters="sRGB">
<feFlood flood-opacity="0" result="BackgroundImageFix"/>
<feColorMatrix in="SourceAlpha" type="matrix" values="0 0 0 0 0 0 0 0 0 0 0 0 0 0 0 0 0 0 127 0" result="hardAlpha"/>
<feOffset dy="4"/>
<feGaussianBlur stdDeviation="2"/>
<feComposite in2="hardAlpha" operator="out"/>
<feColorMatrix type="matrix" values="0 0 0 0 0 0 0 0 0 0 0 0 0 0 0 0 0 0 0.25 0"/>
<feBlend mode="normal" in2="BackgroundImageFix" result="effect1_dropShadow_802_23"/>
<feBlend mode="normal" in="SourceGraphic" in2="effect1_dropShadow_802_23" result="shape"/>
</filter>
<filter id="filter29_d_802_23" x="442.605" y="277.618" width="11.5127" height="15.0254" filterUnits="userSpaceOnUse" color-interpolation-filters="sRGB">
<feFlood flood-opacity="0" result="BackgroundImageFix"/>
<feColorMatrix in="SourceAlpha" type="matrix" values="0 0 0 0 0 0 0 0 0 0 0 0 0 0 0 0 0 0 127 0" result="hardAlpha"/>
<feOffset dy="4"/>
<feGaussianBlur stdDeviation="2"/>
<feComposite in2="hardAlpha" operator="out"/>
<feColorMatrix type="matrix" values="0 0 0 0 0 0 0 0 0 0 0 0 0 0 0 0 0 0 0.25 0"/>
<feBlend mode="normal" in2="BackgroundImageFix" result="effect1_dropShadow_802_23"/>
<feBlend mode="normal" in="SourceGraphic" in2="effect1_dropShadow_802_23" result="shape"/>
</filter>
<filter id="filter30_d_802_23" x="105.382" y="281.131" width="25.5635" height="25.5635" filterUnits="userSpaceOnUse" color-interpolation-filters="sRGB">
<feFlood flood-opacity="0" result="BackgroundImageFix"/>
<feColorMatrix in="SourceAlpha" type="matrix" values="0 0 0 0 0 0 0 0 0 0 0 0 0 0 0 0 0 0 127 0" result="hardAlpha"/>
<feOffset dy="4"/>
<feGaussianBlur stdDeviation="2"/>
<feComposite in2="hardAlpha" operator="out"/>
<feColorMatrix type="matrix" values="0 0 0 0 0 0 0 0 0 0 0 0 0 0 0 0 0 0 0.25 0"/>
<feBlend mode="normal" in2="BackgroundImageFix" result="effect1_dropShadow_802_23"/>
<feBlend mode="normal" in="SourceGraphic" in2="effect1_dropShadow_802_23" result="shape"/>
</filter>
<filter id="filter31_d_802_23" x="221.302" y="281.131" width="25.5635" height="25.5635" filterUnits="userSpaceOnUse" color-interpolation-filters="sRGB">
<feFlood flood-opacity="0" result="BackgroundImageFix"/>
<feColorMatrix in="SourceAlpha" type="matrix" values="0 0 0 0 0 0 0 0 0 0 0 0 0 0 0 0 0 0 127 0" result="hardAlpha"/>
<feOffset dy="4"/>
<feGaussianBlur stdDeviation="2"/>
<feComposite in2="hardAlpha" operator="out"/>
<feColorMatrix type="matrix" values="0 0 0 0 0 0 0 0 0 0 0 0 0 0 0 0 0 0 0.25 0"/>
<feBlend mode="normal" in2="BackgroundImageFix" result="effect1_dropShadow_802_23"/>
<feBlend mode="normal" in="SourceGraphic" in2="effect1_dropShadow_802_23" result="shape"/>
</filter>
<filter id="filter32_d_802_23" x="337.223" y="281.131" width="25.5635" height="25.5635" filterUnits="userSpaceOnUse" color-interpolation-filters="sRGB">
<feFlood flood-opacity="0" result="BackgroundImageFix"/>
<feColorMatrix in="SourceAlpha" type="matrix" values="0 0 0 0 0 0 0 0 0 0 0 0 0 0 0 0 0 0 127 0" result="hardAlpha"/>
<feOffset dy="4"/>
<feGaussianBlur stdDeviation="2"/>
<feComposite in2="hardAlpha" operator="out"/>
<feColorMatrix type="matrix" values="0 0 0 0 0 0 0 0 0 0 0 0 0 0 0 0 0 0 0.25 0"/>
<feBlend mode="normal" in2="BackgroundImageFix" result="effect1_dropShadow_802_23"/>
<feBlend mode="normal" in="SourceGraphic" in2="effect1_dropShadow_802_23" result="shape"/>
</filter>
<filter id="filter33_d_802_23" x="453.143" y="281.131" width="25.5635" height="25.5635" filterUnits="userSpaceOnUse" color-interpolation-filters="sRGB">
<feFlood flood-opacity="0" result="BackgroundImageFix"/>
<feColorMatrix in="SourceAlpha" type="matrix" values="0 0 0 0 0 0 0 0 0 0 0 0 0 0 0 0 0 0 127 0" result="hardAlpha"/>
<feOffset dy="4"/>
<feGaussianBlur stdDeviation="2"/>
<feComposite in2="hardAlpha" operator="out"/>
<feColorMatrix type="matrix" values="0 0 0 0 0 0 0 0 0 0 0 0 0 0 0 0 0 0 0.25 0"/>
<feBlend mode="normal" in2="BackgroundImageFix" result="effect1_dropShadow_802_23"/>
<feBlend mode="normal" in="SourceGraphic" in2="effect1_dropShadow_802_23" result="shape"/>
</filter>
<linearGradient id="paint0_linear_802_23" x1="566.038" y1="291.669" x2="4" y2="291.669" gradientUnits="userSpaceOnUse">
<stop stop-color="#414042"/>
<stop offset="1" stop-color="#939598"/>
</linearGradient>
</defs>
</svg>
