<svg width="133" height="97" viewBox="0 0 133 97" fill="none" xmlns="http://www.w3.org/2000/svg">
<g filter="url(#filter0_d_802_181)">
<rect x="4" y="46.2319" width="125" height="42.1528" rx="21.0764" fill="#718785"/>
<rect x="8" y="50.2319" width="117" height="34.1528" rx="17.0764" stroke="url(#paint0_linear_802_181)" stroke-width="8"/>
</g>
<g filter="url(#filter1_d_802_181)">
<g filter="url(#filter2_d_802_181)">
<path d="M37.9359 65.3357C37.7874 65.3153 37.6388 65.2979 37.4907 65.2801C37.2792 64.1438 36.8467 63.0643 36.2196 62.1073C36.3133 61.9855 36.4063 61.8628 36.4986 61.7393C36.7506 61.4035 36.999 61.0639 37.2363 60.7133L35.356 58.7622C35.018 59.0084 34.6908 59.2661 34.3671 59.5276C34.2481 59.6231 34.1299 59.7196 34.0124 59.8171C33.0891 59.1657 32.0474 58.7166 30.951 58.4973C30.9342 58.3437 30.9165 58.19 30.8978 58.0363C30.8471 57.6144 30.7915 57.192 30.7203 56.77H28.061C27.9902 57.192 27.9346 57.6144 27.8834 58.0363C27.8646 58.19 27.847 58.3436 27.8307 58.4973C26.7341 58.7164 25.6922 59.1655 24.7688 59.8171C24.6514 59.7195 24.5332 59.623 24.4141 59.5276C24.0905 59.2661 23.7636 59.0084 23.4257 58.7622L21.545 60.7132C21.7827 61.0639 22.031 61.4035 22.2826 61.7393C22.3751 61.8624 22.4681 61.9849 22.5616 62.1069C21.9339 63.0651 21.5011 64.1461 21.2897 65.2839C21.1416 65.3013 20.9939 65.3195 20.8458 65.339C20.4387 65.3917 20.0321 65.4494 19.625 65.5233V68.2825C20.0321 68.356 20.4387 68.4137 20.8458 68.4668C20.9939 68.4863 21.1416 68.5046 21.2897 68.5216C21.5007 69.6581 21.9328 70.7381 22.5596 71.6955C22.4659 71.8178 22.3722 71.9401 22.2806 72.064C22.0294 72.4007 21.7819 72.7407 21.545 73.0922L23.4257 75.0432C23.7644 74.7978 24.0921 74.541 24.4166 74.2804C24.536 74.1853 24.6539 74.0881 24.7717 73.9908C25.6934 74.6404 26.733 75.0884 27.827 75.3076C27.8438 75.4613 27.8609 75.6154 27.8806 75.7691C27.9321 76.1915 27.9886 76.6134 28.061 77.0358H30.7203C30.7927 76.6134 30.8495 76.1915 30.9011 75.7691C30.9207 75.6154 30.9375 75.4613 30.9547 75.3076C32.0485 75.0884 33.0879 74.6403 34.0096 73.9908C34.1274 74.0881 34.2456 74.1852 34.3651 74.2804C34.6891 74.541 35.0168 74.7978 35.356 75.0432L37.2363 73.0922C36.9998 72.7407 36.7523 72.4007 36.5007 72.064C36.409 71.9396 36.3153 71.8174 36.2221 71.6952C36.8479 70.7388 37.2795 69.6604 37.4907 68.5254C37.6388 68.5075 37.7873 68.4901 37.9359 68.4698C38.3425 68.4163 38.7496 68.3577 39.1563 68.2825V65.5233C38.7496 65.4481 38.3425 65.3891 37.9359 65.3357ZM34.899 68.7682C34.8063 69.0622 34.6917 69.3484 34.5562 69.624C33.9977 70.7595 33.1078 71.683 32.0135 72.2627C31.2011 72.6921 30.3023 72.916 29.3906 72.916C28.4789 72.916 27.5802 72.6921 26.7678 72.2627C25.6735 71.683 24.7836 70.7595 24.2251 69.624C24.0886 69.3466 23.9734 69.0585 23.8806 68.7623C23.6446 68.0117 23.5538 67.2202 23.6134 66.4331C23.673 65.6461 23.8818 64.879 24.228 64.1759C24.7857 63.0449 25.6725 62.1248 26.7625 61.5461C27.0315 61.403 27.3112 61.2824 27.5987 61.1853C28.7635 60.7929 30.0182 60.793 31.183 61.1857C31.4703 61.2827 31.7498 61.4032 32.0188 61.5461C33.1088 62.1248 33.9956 63.0449 34.5533 64.1759C34.8991 64.8802 35.1077 65.6483 35.167 66.4363C35.2263 67.2243 35.1352 68.0167 34.899 68.7682Z" fill="#40E0D0"/>
</g>
<g filter="url(#filter3_d_802_181)">
<path d="M63.7171 65.3357C63.5686 65.3153 63.4201 65.2979 63.272 65.2801C63.0605 64.1438 62.628 63.0643 62.0009 62.1073C62.0945 61.9855 62.1876 61.8628 62.2799 61.7393C62.5319 61.4035 62.7802 61.0639 63.0175 60.7133L61.1372 58.7622C60.7993 59.0084 60.472 59.2661 60.1484 59.5276C60.0293 59.6231 59.9111 59.7196 59.7937 59.8171C58.8703 59.1657 57.8286 58.7166 56.7323 58.4973C56.7155 58.3437 56.6977 58.19 56.6791 58.0363C56.6283 57.6144 56.5727 57.192 56.5015 56.77H53.8422C53.7715 57.192 53.7158 57.6144 53.6647 58.0363C53.6459 58.19 53.6283 58.3436 53.6119 58.4973C52.5154 58.7164 51.4735 59.1655 50.5501 59.8171C50.4327 59.7195 50.3144 59.623 50.1954 59.5276C49.8718 59.2661 49.5449 59.0084 49.2069 58.7622L47.3262 60.7132C47.5639 61.0639 47.8123 61.4035 48.0639 61.7393C48.1563 61.8624 48.2493 61.9849 48.3429 62.1069C47.7151 63.0651 47.2823 64.1461 47.0709 65.2839C46.9228 65.3013 46.7752 65.3195 46.627 65.339C46.22 65.3917 45.8133 65.4494 45.4062 65.5233V68.2825C45.8133 68.356 46.22 68.4137 46.627 68.4668C46.7752 68.4863 46.9228 68.5046 47.0709 68.5216C47.2819 69.6581 47.714 70.7381 48.3408 71.6955C48.2472 71.8178 48.1535 71.9401 48.0618 72.064C47.8106 72.4007 47.5631 72.7407 47.3262 73.0922L49.2069 75.0432C49.5457 74.7978 49.8734 74.541 50.1978 74.2804C50.3173 74.1853 50.4351 74.0881 50.5529 73.9908C51.4747 74.6404 52.5142 75.0884 53.6082 75.3076C53.625 75.4613 53.6422 75.6154 53.6618 75.7691C53.7134 76.1915 53.7698 76.6134 53.8422 77.0358H56.5015C56.5739 76.6134 56.6308 76.1915 56.6823 75.7691C56.702 75.6154 56.7187 75.4613 56.7359 75.3076C57.8298 75.0884 58.8692 74.6403 59.7908 73.9908C59.9086 74.0881 60.0269 74.1852 60.1463 74.2804C60.4704 74.541 60.7981 74.7978 61.1372 75.0432L63.0175 73.0922C62.781 72.7407 62.5335 72.4007 62.2819 72.064C62.1903 71.9396 62.0966 71.8174 62.0033 71.6952C62.6291 70.7388 63.0608 69.6604 63.272 68.5254C63.4201 68.5075 63.5686 68.4901 63.7171 68.4698C64.1238 68.4163 64.5308 68.3577 64.9375 68.2825V65.5233C64.5308 65.4481 64.1238 65.3891 63.7171 65.3357ZM60.6802 68.7682C60.5875 69.0622 60.4729 69.3484 60.3374 69.624C59.7789 70.7595 58.889 71.683 57.7947 72.2627C56.9824 72.6921 56.0836 72.916 55.1719 72.916C54.2602 72.916 53.3614 72.6921 52.549 72.2627C51.4547 71.683 50.5649 70.7595 50.0064 69.624C49.8698 69.3466 49.7546 69.0585 49.6619 68.7623C49.4258 68.0117 49.335 67.2202 49.3946 66.4331C49.4542 65.6461 49.6631 64.879 50.0092 64.1759C50.567 63.0449 51.4537 62.1248 52.5437 61.5461C52.8128 61.403 53.0924 61.2824 53.3799 61.1853C54.5448 60.7929 55.7994 60.793 56.9642 61.1857C57.2516 61.2827 57.5311 61.4032 57.8001 61.5461C58.8901 62.1248 59.7768 63.0449 60.3345 64.1759C60.6804 64.8802 60.8889 65.6483 60.9482 66.4363C61.0075 67.2243 60.9165 68.0167 60.6802 68.7682Z" fill="#40E0D0"/>
</g>
<g filter="url(#filter4_d_802_181)">
<path d="M89.4984 65.3357C89.3499 65.3153 89.2013 65.2979 89.0532 65.2801C88.8417 64.1438 88.4092 63.0643 87.7821 62.1073C87.8758 61.9855 87.9688 61.8628 88.0611 61.7393C88.3131 61.4035 88.5615 61.0639 88.7988 60.7133L86.9185 58.7622C86.5805 59.0084 86.2533 59.2661 85.9296 59.5276C85.8106 59.6231 85.6924 59.7196 85.5749 59.8171C84.6516 59.1657 83.6099 58.7166 82.5135 58.4973C82.4967 58.3437 82.479 58.19 82.4603 58.0363C82.4096 57.6144 82.354 57.192 82.2828 56.77H79.6235C79.5527 57.192 79.4971 57.6144 79.4459 58.0363C79.4271 58.19 79.4095 58.3436 79.3932 58.4973C78.2966 58.7164 77.2547 59.1655 76.3313 59.8171C76.2139 59.7195 76.0957 59.623 75.9766 59.5276C75.653 59.2661 75.3261 59.0084 74.9882 58.7622L73.1075 60.7132C73.3452 61.0639 73.5935 61.4035 73.8451 61.7393C73.9376 61.8624 74.0306 61.9849 74.1241 62.1069C73.4964 63.0651 73.0636 64.1461 72.8522 65.2839C72.7041 65.3013 72.5564 65.3195 72.4083 65.339C72.0012 65.3917 71.5946 65.4494 71.1875 65.5233V68.2825C71.5946 68.356 72.0012 68.4137 72.4083 68.4668C72.5564 68.4863 72.7041 68.5046 72.8522 68.5216C73.0632 69.6581 73.4953 70.7381 74.1221 71.6955C74.0284 71.8178 73.9347 71.9401 73.8431 72.064C73.5919 72.4007 73.3444 72.7407 73.1075 73.0922L74.9882 75.0432C75.3269 74.7978 75.6546 74.541 75.9791 74.2804C76.0985 74.1853 76.2164 74.0881 76.3342 73.9908C77.2559 74.6404 78.2955 75.0884 79.3895 75.3076C79.4063 75.4613 79.4234 75.6154 79.4431 75.7691C79.4946 76.1915 79.5511 76.6134 79.6235 77.0358H82.2828C82.3552 76.6134 82.412 76.1915 82.4636 75.7691C82.4832 75.6154 82.5 75.4613 82.5172 75.3076C83.611 75.0884 84.6504 74.6403 85.5721 73.9908C85.6899 74.0881 85.8081 74.1852 85.9276 74.2804C86.2516 74.541 86.5793 74.7978 86.9185 75.0432L88.7988 73.0922C88.5623 72.7407 88.3148 72.4007 88.0632 72.064C87.9715 71.9396 87.8778 71.8174 87.7846 71.6952C88.4104 70.7388 88.842 69.6604 89.0532 68.5254C89.2013 68.5075 89.3498 68.4901 89.4984 68.4698C89.905 68.4163 90.3121 68.3577 90.7188 68.2825V65.5233C90.3121 65.4481 89.905 65.3891 89.4984 65.3357ZM86.4615 68.7682C86.3688 69.0622 86.2542 69.3484 86.1187 69.624C85.5602 70.7595 84.6703 71.683 83.576 72.2627C82.7636 72.6921 81.8648 72.916 80.9531 72.916C80.0414 72.916 79.1427 72.6921 78.3303 72.2627C77.236 71.683 76.3461 70.7595 75.7876 69.624C75.6511 69.3466 75.5359 69.0585 75.4431 68.7623C75.2071 68.0117 75.1163 67.2202 75.1759 66.4331C75.2355 65.6461 75.4443 64.879 75.7905 64.1759C76.3482 63.0449 77.235 62.1248 78.325 61.5461C78.594 61.403 78.8737 61.2824 79.1612 61.1853C80.326 60.7929 81.5807 60.793 82.7455 61.1857C83.0328 61.2827 83.3123 61.4032 83.5813 61.5461C84.6713 62.1248 85.5581 63.0449 86.1158 64.1759C86.4616 64.8802 86.6702 65.6483 86.7295 66.4363C86.7888 67.2243 86.6977 68.0167 86.4615 68.7682Z" fill="#40E0D0"/>
</g>
<g filter="url(#filter5_d_802_181)">
<path d="M115.28 65.3357C115.131 65.3153 114.983 65.2979 114.834 65.2801C114.623 64.1438 114.19 63.0643 113.563 62.1073C113.657 61.9855 113.75 61.8628 113.842 61.7393C114.094 61.4035 114.343 61.0639 114.58 60.7133L112.7 58.7622C112.362 59.0084 112.035 59.2661 111.711 59.5276C111.592 59.6231 111.474 59.7196 111.356 59.8171C110.433 59.1657 109.391 58.7166 108.295 58.4973C108.278 58.3437 108.26 58.19 108.242 58.0363C108.191 57.6144 108.135 57.192 108.064 56.77H105.405C105.334 57.192 105.278 57.6144 105.227 58.0363C105.208 58.19 105.191 58.3436 105.174 58.4973C104.078 58.7164 103.036 59.1655 102.113 59.8171C101.995 59.7195 101.877 59.623 101.758 59.5276C101.434 59.2661 101.107 59.0084 100.769 58.7622L98.8887 60.7132C99.1264 61.0639 99.3748 61.4035 99.6264 61.7393C99.7188 61.8624 99.8118 61.9849 99.9054 62.1069C99.2776 63.0651 98.8448 64.1461 98.6334 65.2839C98.4853 65.3013 98.3377 65.3195 98.1895 65.339C97.7825 65.3917 97.3758 65.4494 96.9688 65.5233V68.2825C97.3758 68.356 97.7825 68.4137 98.1895 68.4668C98.3377 68.4863 98.4853 68.5046 98.6334 68.5216C98.8444 69.6581 99.2765 70.7381 99.9033 71.6955C99.8097 71.8178 99.716 71.9401 99.6243 72.064C99.3731 72.4007 99.1256 72.7407 98.8887 73.0922L100.769 75.0432C101.108 74.7978 101.436 74.541 101.76 74.2804C101.88 74.1853 101.998 74.0881 102.115 73.9908C103.037 74.6404 104.077 75.0884 105.171 75.3076C105.188 75.4613 105.205 75.6154 105.224 75.7691C105.276 76.1915 105.332 76.6134 105.405 77.0358H108.064C108.136 76.6134 108.193 76.1915 108.245 75.7691C108.264 75.6154 108.281 75.4613 108.298 75.3076C109.392 75.0884 110.432 74.6403 111.353 73.9908C111.471 74.0881 111.589 74.1852 111.709 74.2804C112.033 74.541 112.361 74.7978 112.7 75.0432L114.58 73.0922C114.344 72.7407 114.096 72.4007 113.844 72.064C113.753 71.9396 113.659 71.8174 113.566 71.6952C114.192 70.7388 114.623 69.6604 114.834 68.5254C114.983 68.5075 115.131 68.4901 115.28 68.4698C115.686 68.4163 116.093 68.3577 116.5 68.2825V65.5233C116.093 65.4481 115.686 65.3891 115.28 65.3357ZM112.243 68.7682C112.15 69.0622 112.035 69.3484 111.9 69.624C111.341 70.7595 110.452 71.683 109.357 72.2627C108.545 72.6921 107.646 72.916 106.734 72.916C105.823 72.916 104.924 72.6921 104.112 72.2627C103.017 71.683 102.127 70.7595 101.569 69.624C101.432 69.3466 101.317 69.0585 101.224 68.7623C100.988 68.0117 100.898 67.2202 100.957 66.4331C101.017 65.6461 101.226 64.879 101.572 64.1759C102.129 63.0449 103.016 62.1248 104.106 61.5461C104.375 61.403 104.655 61.2824 104.942 61.1853C106.107 60.7929 107.362 60.793 108.527 61.1857C108.814 61.2827 109.094 61.4032 109.363 61.5461C110.453 62.1248 111.339 63.0449 111.897 64.1759C112.243 64.8802 112.451 65.6483 112.511 66.4363C112.57 67.2243 112.479 68.0167 112.243 68.7682Z" fill="#40E0D0"/>
</g>
<g filter="url(#filter6_d_802_181)">
<path d="M29.632 63.255L29.7813 62.754L29.3906 62.4443L29 62.754L29.1492 63.255H29.632Z" fill="#40E0D0"/>
</g>
<g filter="url(#filter7_d_802_181)">
<path d="M55.4133 63.255L55.5625 62.754L55.1719 62.4443L54.7812 62.754L54.9305 63.255H55.4133Z" fill="#40E0D0"/>
</g>
<g filter="url(#filter8_d_802_181)">
<path d="M81.1945 63.255L81.3438 62.754L80.9531 62.4443L80.5625 62.754L80.7117 63.255H81.1945Z" fill="#40E0D0"/>
</g>
<g filter="url(#filter9_d_802_181)">
<path d="M106.976 63.255L107.125 62.754L106.734 62.4443L106.344 62.754L106.493 63.255H106.976Z" fill="#40E0D0"/>
</g>
<g filter="url(#filter10_d_802_181)">
<path d="M33.5848 65.4773L33.6875 64.4751L32.7853 64.0659L32.125 64.815L32.619 65.6872L33.5848 65.4773Z" fill="#40E0D0"/>
</g>
<g filter="url(#filter11_d_802_181)">
<path d="M59.4174 65.4773L59.4688 64.4751L59.0177 64.0659L58.6875 64.815L58.9345 65.6872L59.4174 65.4773Z" fill="#40E0D0"/>
</g>
<g filter="url(#filter12_d_802_181)">
<path d="M85.1986 65.4773L85.25 64.4751L84.7989 64.0659L84.4688 64.815L84.7157 65.6872L85.1986 65.4773Z" fill="#40E0D0"/>
</g>
<g filter="url(#filter13_d_802_181)">
<path d="M110.199 65.4773L110.25 64.4751L109.799 64.0659L109.469 64.815L109.716 65.6872L110.199 65.4773Z" fill="#40E0D0"/>
</g>
<g filter="url(#filter14_d_802_181)">
<path d="M32.6176 68.1191L32.125 68.9922L32.7863 69.7404L33.6875 69.3294L33.5833 68.3276L32.6176 68.1191Z" fill="#40E0D0"/>
</g>
<g filter="url(#filter15_d_802_181)">
<path d="M58.9338 68.1191L58.6875 68.9922L59.0182 69.7404L59.4688 69.3294L59.4167 68.3276L58.9338 68.1191Z" fill="#40E0D0"/>
</g>
<g filter="url(#filter16_d_802_181)">
<path d="M84.715 68.1191L84.4688 68.9922L84.7994 69.7404L85.25 69.3294L85.1979 68.3276L84.715 68.1191Z" fill="#40E0D0"/>
</g>
<g filter="url(#filter17_d_802_181)">
<path d="M109.715 68.1191L109.469 68.9922L109.799 69.7404L110.25 69.3294L110.198 68.3276L109.715 68.1191Z" fill="#40E0D0"/>
</g>
<g filter="url(#filter18_d_802_181)">
<path d="M29.1484 70.5517L29 71.0526L29.3911 71.3614L29.7813 71.0512L29.6313 70.5508L29.1484 70.5517Z" fill="#40E0D0"/>
</g>
<g filter="url(#filter19_d_802_181)">
<path d="M55.078 70.5517L54.7812 71.0526L55.5634 71.3614L56.3438 71.0512L56.0438 70.5508L55.078 70.5517Z" fill="#40E0D0"/>
</g>
<g filter="url(#filter20_d_802_181)">
<path d="M80.7109 70.5517L80.5625 71.0526L80.9536 71.3614L81.3438 71.0512L81.1938 70.5508L80.7109 70.5517Z" fill="#40E0D0"/>
</g>
<g filter="url(#filter21_d_802_181)">
<path d="M106.492 70.5517L106.344 71.0526L106.735 71.3614L107.125 71.0512L106.975 70.5508L106.492 70.5517Z" fill="#40E0D0"/>
</g>
<g filter="url(#filter22_d_802_181)">
<path d="M25.195 69.0355L25.0938 69.5365L25.9968 69.7403L26.6563 69.3653L26.1604 68.9297L25.195 69.0355Z" fill="#40E0D0"/>
</g>
<g filter="url(#filter23_d_802_181)">
<path d="M51.7069 69.0355L51.6562 69.5365L52.1078 69.7403L52.4375 69.3653L52.1896 68.9297L51.7069 69.0355Z" fill="#40E0D0"/>
</g>
<g filter="url(#filter24_d_802_181)">
<path d="M77.4881 69.0355L77.4375 69.5365L77.889 69.7403L78.2188 69.3653L77.9708 68.9297L77.4881 69.0355Z" fill="#40E0D0"/>
</g>
<g filter="url(#filter25_d_802_181)">
<path d="M102.488 69.0355L102.438 69.5365L102.889 69.7403L103.219 69.3653L102.971 68.9297L102.488 69.0355Z" fill="#40E0D0"/>
</g>
<g filter="url(#filter26_d_802_181)">
<path d="M26.1653 65.6872L26.6563 64.8132L25.9941 64.0659L25.0938 64.4785L25.1994 65.4805L26.1653 65.6872Z" fill="#40E0D0"/>
</g>
<g filter="url(#filter27_d_802_181)">
<path d="M52.192 65.6872L52.4375 64.8132L52.1064 64.0659L51.6562 64.4785L51.7091 65.4805L52.192 65.6872Z" fill="#40E0D0"/>
</g>
<g filter="url(#filter28_d_802_181)">
<path d="M77.9733 65.6872L78.2188 64.8132L77.8877 64.0659L77.4375 64.4785L77.4903 65.4805L77.9733 65.6872Z" fill="#40E0D0"/>
</g>
<g filter="url(#filter29_d_802_181)">
<path d="M102.973 65.6872L103.219 64.8132L102.888 64.0659L102.438 64.4785L102.49 65.4805L102.973 65.6872Z" fill="#40E0D0"/>
</g>
<g filter="url(#filter30_d_802_181)">
<path d="M29.3906 68.9296C30.4693 68.9296 31.3438 68.0223 31.3438 66.903C31.3438 65.7838 30.4693 64.8765 29.3906 64.8765C28.3119 64.8765 27.4375 65.7838 27.4375 66.903C27.4375 68.0223 28.3119 68.9296 29.3906 68.9296Z" fill="#40E0D0"/>
</g>
<g filter="url(#filter31_d_802_181)">
<path d="M55.1719 68.9296C56.2506 68.9296 57.125 68.0223 57.125 66.903C57.125 65.7838 56.2506 64.8765 55.1719 64.8765C54.0932 64.8765 53.2188 65.7838 53.2188 66.903C53.2188 68.0223 54.0932 68.9296 55.1719 68.9296Z" fill="#40E0D0"/>
</g>
<g filter="url(#filter32_d_802_181)">
<path d="M80.9531 68.9296C82.0318 68.9296 82.9062 68.0223 82.9062 66.903C82.9062 65.7838 82.0318 64.8765 80.9531 64.8765C79.8744 64.8765 79 65.7838 79 66.903C79 68.0223 79.8744 68.9296 80.9531 68.9296Z" fill="#40E0D0"/>
</g>
<g filter="url(#filter33_d_802_181)">
<path d="M106.734 68.9296C107.813 68.9296 108.688 68.0223 108.688 66.903C108.688 65.7838 107.813 64.8765 106.734 64.8765C105.656 64.8765 104.781 65.7838 104.781 66.903C104.781 68.0223 105.656 68.9296 106.734 68.9296Z" fill="#40E0D0"/>
</g>
</g>
<path d="M101.657 21.7715C102.299 21.3763 102.587 20.6511 102.302 20.1517C102.016 19.6523 101.264 19.5679 100.622 19.9631C99.9806 20.3583 99.692 21.0835 99.9777 21.5829C100.263 22.0823 101.015 22.1667 101.657 21.7715Z" fill="#AD5A1C"/>
<path d="M102.008 21.4456C102.119 21.2976 102.201 21.1268 102.249 20.9429C102.297 20.759 102.309 20.5657 102.286 20.374C102.263 20.1822 102.205 19.9959 102.114 19.8256C102.024 19.6554 101.903 19.5045 101.759 19.3816C101.74 19.3495 101.696 19.3416 101.668 19.319C101.167 20.1134 100.585 20.8459 99.9328 21.5044C99.9748 21.5518 100.019 21.597 100.065 21.6399C100.356 21.8868 100.724 22.005 101.088 21.9686C101.452 21.9322 101.783 21.7442 102.008 21.4456Z" fill="#874315"/>
<path d="M101.945 21.5939C101.68 21.7568 101.386 21.8563 101.094 21.8819C100.802 21.9074 100.524 21.8579 100.29 21.7387C100.056 21.6195 99.8743 21.4351 99.7651 21.2056C99.6559 20.9761 99.6232 20.7101 99.6706 20.4365C99.718 20.1628 99.8436 19.8919 100.034 19.6531C100.224 19.4142 100.472 19.2166 100.75 19.0814C101.028 18.9463 101.327 18.8789 101.613 18.8864C101.899 18.894 102.162 18.9762 102.373 19.1243C102.525 19.2311 102.646 19.3694 102.731 19.5315C102.815 19.6936 102.86 19.8762 102.864 20.069C102.868 20.2617 102.83 20.4607 102.753 20.6548C102.676 20.8488 102.56 21.0339 102.414 21.1997C102.28 21.3528 102.121 21.4865 101.945 21.5939ZM100.918 19.7979C100.833 19.8502 100.756 19.9152 100.692 19.9896C100.558 20.1431 100.482 20.3273 100.478 20.5062C100.474 20.685 100.544 20.8455 100.672 20.956C100.801 21.0666 100.979 21.1193 101.172 21.1037C101.366 21.0882 101.56 21.0055 101.717 20.8719C101.874 20.7383 101.983 20.5636 102.021 20.3819C102.06 20.2003 102.026 20.0249 101.925 19.8903C101.825 19.7557 101.666 19.6716 101.48 19.6545C101.293 19.6374 101.093 19.6885 100.918 19.7979Z" fill="#1E0505"/>
<path d="M92.9234 24.3593C93.5914 24.6692 94.2913 24.9008 95.0103 25.0498C95.2157 24.897 95.3764 24.6886 95.4748 24.448C95.5731 24.2074 95.6051 23.9438 95.5673 23.6867C95.5295 23.4296 95.4233 23.189 95.2605 22.9915C95.0977 22.7941 94.8847 22.6476 94.6452 22.5684C94.4057 22.4891 94.149 22.4802 93.9037 22.5426C93.6585 22.605 93.4341 22.7363 93.2557 22.9219C93.0773 23.1074 92.9518 23.34 92.8932 23.5938C92.8345 23.8476 92.845 24.1126 92.9234 24.3593Z" fill="#AD5A1C"/>
<path d="M94.9623 25.8947L94.7945 25.8439C94.0204 25.6034 93.2593 25.2693 92.5254 24.8478L92.3658 24.7568L92.3002 24.5729C92.1251 24.0908 92.1067 23.5794 92.2487 23.138C92.3908 22.6966 92.683 22.3566 93.0688 22.1841C93.4545 22.0116 93.9063 22.0188 94.3364 22.2043C94.7665 22.3898 95.1443 22.7404 95.3965 23.1881C95.656 23.6364 95.7692 24.1537 95.7134 24.6365C95.6577 25.1193 95.4371 25.5318 95.0959 25.7915L94.9623 25.8947ZM92.9574 24.1821C93.5259 24.4948 94.1108 24.7517 94.7048 24.9494C94.8624 24.7669 94.9462 24.5147 94.9404 24.2401C94.9346 23.9654 94.8397 23.687 94.6733 23.4568C94.507 23.2266 94.2806 23.0604 94.0364 22.9892C93.7922 22.918 93.5469 22.9467 93.3464 23.0699C93.1847 23.1746 93.0615 23.3359 92.992 23.5338C92.9225 23.7317 92.9097 23.9576 92.9553 24.1834L92.9574 24.1821Z" fill="#1E0505"/>
<path d="M98.115 7.23176C98.033 7.18268 97.9545 7.12946 97.878 7.07452C97.8136 7.56526 97.659 8.05127 97.4054 8.50693C96.3605 10.3848 94.046 11.0283 92.2361 9.94413C91.255 9.35638 90.6248 8.38149 90.4185 7.31315C89.8267 8.2531 88.7043 8.64273 87.7038 8.30182C87.6092 8.45315 87.5179 8.60754 87.4301 8.76524C84.6871 13.695 86.3149 19.9987 91.066 22.8449C95.8171 25.6912 101.892 24.0021 104.635 19.0723C107.056 14.7223 106.072 9.30333 102.544 6.13308C101.591 7.65272 99.6462 8.14909 98.115 7.23176Z" fill="#FDD198"/>
<path d="M97.0926 26.7384C97.2886 26.386 97.7226 26.2657 98.0618 26.4689C98.401 26.6721 98.5176 27.1222 98.3215 27.4746C98.1257 27.8266 97.6915 27.9473 97.3523 27.7441C97.0131 27.5409 96.8967 27.0903 97.0926 26.7384Z" fill="#3ABEFF"/>
<path d="M101.383 11.1732C101.71 10.5862 102.433 10.3852 102.999 10.7241C103.564 11.063 103.758 11.8132 103.432 12.4002C103.105 12.9873 102.382 13.1883 101.816 12.8494C101.25 12.5104 101.057 11.7602 101.383 11.1732Z" fill="#FF8A26"/>
<path d="M91.4291 20.2285C91.6904 19.7588 92.2687 19.598 92.7214 19.8692C93.1741 20.1404 93.329 20.7404 93.0677 21.2101C92.8066 21.6794 92.228 21.8406 91.7754 21.5694C91.3227 21.2983 91.168 20.6978 91.4291 20.2285Z" fill="#FF8A26"/>
<path d="M92.392 14.5713C92.6533 14.1016 93.2316 13.9408 93.6843 14.212C94.137 14.4831 94.2919 15.0832 94.0306 15.5529C93.7695 16.0222 93.1909 16.1834 92.7382 15.9122C92.2856 15.641 92.1309 15.0405 92.392 14.5713Z" fill="#FF8A26"/>
<path d="M101.058 18.6297C101.581 17.6907 101.271 16.49 100.366 15.9479C99.4607 15.4057 98.3035 15.7275 97.781 16.6665C97.2585 17.6055 97.5686 18.8062 98.4736 19.3483C99.3785 19.8905 100.536 19.5687 101.058 18.6297Z" fill="#FF8A26"/>
<path d="M97.6247 12.0383C97.4941 12.273 97.5717 12.5733 97.7978 12.7088C98.024 12.8442 98.3134 12.7638 98.444 12.5291C98.5745 12.2945 98.497 11.9941 98.2709 11.8587C98.0447 11.7232 97.7552 11.8037 97.6247 12.0383Z" fill="#EF3734"/>
<path d="M102.714 15.6536C102.583 15.8882 102.661 16.1886 102.887 16.324C103.113 16.4595 103.403 16.379 103.533 16.1444C103.664 15.9097 103.586 15.6094 103.36 15.4739C103.134 15.3384 102.845 15.4189 102.714 15.6536Z" fill="#EF3734"/>
<path d="M88.9245 15.8943C88.7939 16.1289 88.8715 16.4293 89.0976 16.5647C89.3238 16.7002 89.6132 16.6197 89.7438 16.3851C89.8744 16.1505 89.7968 15.8501 89.5707 15.7146C89.3445 15.5792 89.0551 15.6596 88.9245 15.8943Z" fill="#EF3734"/>
<path d="M95.4792 19.8205C95.3486 20.0552 95.4262 20.3555 95.6523 20.491C95.8785 20.6265 96.1679 20.546 96.2985 20.3114C96.429 20.0767 96.3515 19.7764 96.1253 19.6409C95.8992 19.5054 95.6097 19.5859 95.4792 19.8205Z" fill="#EF3734"/>
<rect x="82.9062" y="17.0024" width="28.125" height="29.1827" rx="4" fill="#40E0D0"/>
<path d="M82.9062 21.0024C82.9062 18.7933 84.6971 17.0024 86.9063 17.0024H107.906V38.9427C107.906 41.1518 106.115 42.9427 103.906 42.9427H82.9062V21.0024Z" fill="#7DEFE4"/>
<path d="M93.0625 17.0024H99.3125V21.4875C99.3125 22.5921 98.4171 23.4875 97.3125 23.4875H95.0625C93.9579 23.4875 93.0625 22.5921 93.0625 21.4875V17.0024Z" fill="#40E0D0"/>
<path d="M70.6666 21.7715C71.3083 21.3763 71.5969 20.6511 71.3113 20.1517C71.0256 19.6523 70.2738 19.5679 69.6321 19.9631C68.9904 20.3583 68.7018 21.0835 68.9875 21.5829C69.2731 22.0823 70.0249 22.1667 70.6666 21.7715Z" fill="#AD5A1C"/>
<path d="M71.0174 21.4456C71.1288 21.2976 71.2108 21.1268 71.2586 20.9429C71.3065 20.759 71.3192 20.5657 71.2961 20.374C71.2729 20.1822 71.2144 19.9959 71.1239 19.8256C71.0334 19.6554 70.9126 19.5045 70.7684 19.3816C70.7501 19.3495 70.7053 19.3416 70.6778 19.319C70.1766 20.1134 69.5949 20.8459 68.9425 21.5044C68.9845 21.5518 69.0287 21.597 69.0749 21.6399C69.3661 21.8868 69.734 22.005 70.0981 21.9686C70.4621 21.9322 70.7927 21.7442 71.0174 21.4456Z" fill="#874315"/>
<path d="M70.955 21.5939C70.6899 21.7568 70.3956 21.8563 70.1038 21.8819C69.8121 21.9074 69.5341 21.8579 69.2998 21.7387C69.0656 21.6195 68.884 21.4351 68.7749 21.2056C68.6657 20.9761 68.633 20.7101 68.6804 20.4365C68.7278 20.1628 68.8534 19.8919 69.0437 19.6531C69.2339 19.4142 69.4816 19.2166 69.7599 19.0814C70.0382 18.9463 70.3364 18.8789 70.6225 18.8864C70.9085 18.894 71.1713 18.9762 71.3826 19.1243C71.5346 19.2311 71.6562 19.3694 71.7406 19.5315C71.8249 19.6936 71.8702 19.8762 71.874 20.069C71.8778 20.2617 71.84 20.4607 71.7627 20.6548C71.6853 20.8488 71.5701 21.0339 71.4234 21.1997C71.2896 21.3528 71.1307 21.4865 70.955 21.5939ZM69.9276 19.7979C69.8427 19.8502 69.7663 19.9152 69.702 19.9896C69.5681 20.1431 69.4917 20.3273 69.488 20.5062C69.4842 20.685 69.5534 20.8455 69.6818 20.956C69.8103 21.0666 69.9887 21.1193 70.1821 21.1037C70.3755 21.0882 70.5698 21.0055 70.7269 20.8719C70.884 20.7383 70.9924 20.5636 71.031 20.3819C71.0695 20.2003 71.0353 20.0249 70.9352 19.8903C70.835 19.7557 70.676 19.6716 70.4896 19.6545C70.3031 19.6374 70.1027 19.6885 69.9276 19.7979Z" fill="#1E0505"/>
<path d="M61.9332 24.3593C62.6011 24.6692 63.3011 24.9008 64.0201 25.0498C64.2254 24.897 64.3862 24.6886 64.4845 24.448C64.5829 24.2074 64.6149 23.9438 64.5771 23.6867C64.5392 23.4296 64.433 23.189 64.2703 22.9915C64.1075 22.7941 63.8945 22.6476 63.655 22.5684C63.4155 22.4891 63.1588 22.4802 62.9135 22.5426C62.6682 22.605 62.4439 22.7363 62.2655 22.9219C62.0871 23.1074 61.9616 23.34 61.9029 23.5938C61.8443 23.8476 61.8547 24.1126 61.9332 24.3593Z" fill="#AD5A1C"/>
<path d="M63.9721 25.8947L63.8043 25.8439C63.0302 25.6034 62.2691 25.2693 61.5352 24.8478L61.3755 24.7568L61.31 24.5729C61.1348 24.0908 61.1165 23.5794 61.2585 23.138C61.4005 22.6966 61.6928 22.3566 62.0785 22.1841C62.4643 22.0116 62.916 22.0188 63.3462 22.2043C63.7763 22.3898 64.1541 22.7404 64.4062 23.1881C64.6657 23.6364 64.779 24.1537 64.7232 24.6365C64.6675 25.1193 64.4469 25.5318 64.1056 25.7915L63.9721 25.8947ZM61.9672 24.1821C62.5356 24.4948 63.1206 24.7517 63.7145 24.9494C63.8722 24.7669 63.956 24.5147 63.9502 24.2401C63.9444 23.9654 63.8494 23.687 63.6831 23.4568C63.5167 23.2266 63.2903 23.0604 63.0461 22.9892C62.802 22.918 62.5567 22.9467 62.3562 23.0699C62.1945 23.1746 62.0713 23.3359 62.0018 23.5338C61.9322 23.7317 61.9195 23.9576 61.9651 24.1834L61.9672 24.1821Z" fill="#1E0505"/>
<path d="M67.1247 7.23176C67.0428 7.18268 66.9643 7.12946 66.8878 7.07452C66.8234 7.56526 66.6687 8.05127 66.4152 8.50693C65.3703 10.3848 63.0557 11.0283 61.2459 9.94413C60.2648 9.35638 59.6346 8.38149 59.4283 7.31315C58.8364 8.2531 57.7141 8.64273 56.7136 8.30182C56.619 8.45315 56.5276 8.60754 56.4399 8.76524C53.6968 13.695 55.3247 19.9987 60.0758 22.8449C64.8269 25.6912 70.9021 24.0021 73.6452 19.0723C76.0656 14.7223 75.0821 9.30333 71.5534 6.13308C70.6003 7.65272 68.656 8.14909 67.1247 7.23176Z" fill="#FDD198"/>
<path d="M66.1023 26.7384C66.2984 26.386 66.7324 26.2657 67.0716 26.4689C67.4108 26.6721 67.5273 27.1222 67.3313 27.4746C67.1354 27.8266 66.7012 27.9473 66.362 27.7441C66.0228 27.5409 65.9065 27.0903 66.1023 26.7384Z" fill="#3ABEFF"/>
<path d="M70.393 11.1732C70.7197 10.5862 71.4427 10.3852 72.0084 10.7241C72.5742 11.063 72.7679 11.8132 72.4413 12.4002C72.1146 12.9873 71.3916 13.1883 70.8259 12.8494C70.2602 12.5104 70.0664 11.7602 70.393 11.1732Z" fill="#FF8A26"/>
<path d="M60.4388 20.2285C60.7002 19.7588 61.2785 19.598 61.7312 19.8692C62.1838 20.1404 62.3388 20.7404 62.0774 21.2101C61.8163 21.6794 61.2378 21.8406 60.7851 21.5694C60.3325 21.2983 60.1777 20.6978 60.4388 20.2285Z" fill="#FF8A26"/>
<path d="M61.4017 14.5713C61.6631 14.1016 62.2414 13.9408 62.6941 14.212C63.1467 14.4831 63.3017 15.0832 63.0403 15.5529C62.7792 16.0222 62.2007 16.1834 61.748 15.9122C61.2953 15.641 61.1406 15.0405 61.4017 14.5713Z" fill="#FF8A26"/>
<path d="M70.068 18.6297C70.5905 17.6907 70.2804 16.49 69.3754 15.9479C68.4704 15.4057 67.3133 15.7275 66.7908 16.6665C66.2683 17.6055 66.5784 18.8062 67.4833 19.3483C68.3883 19.8905 69.5455 19.5687 70.068 18.6297Z" fill="#FF8A26"/>
<path d="M66.6345 12.0383C66.5039 12.273 66.5815 12.5733 66.8076 12.7088C67.0337 12.8442 67.3232 12.7638 67.4538 12.5291C67.5843 12.2945 67.5067 11.9941 67.2806 11.8587C67.0545 11.7232 66.765 11.8037 66.6345 12.0383Z" fill="#EF3734"/>
<path d="M71.7238 15.6536C71.5933 15.8882 71.6708 16.1886 71.897 16.324C72.1231 16.4595 72.4126 16.379 72.5431 16.1444C72.6737 15.9097 72.5961 15.6094 72.37 15.4739C72.1439 15.3384 71.8544 15.4189 71.7238 15.6536Z" fill="#EF3734"/>
<path d="M57.9343 15.8943C57.8037 16.1289 57.8813 16.4293 58.1074 16.5647C58.3335 16.7002 58.623 16.6197 58.7536 16.3851C58.8841 16.1505 58.8066 15.8501 58.5804 15.7146C58.3543 15.5792 58.0648 15.6596 57.9343 15.8943Z" fill="#EF3734"/>
<path d="M64.489 19.8205C64.3584 20.0552 64.436 20.3555 64.6621 20.491C64.8882 20.6265 65.1777 20.546 65.3083 20.3114C65.4388 20.0767 65.3612 19.7764 65.1351 19.6409C64.909 19.5054 64.6195 19.5859 64.489 19.8205Z" fill="#EF3734"/>
<rect x="51.916" y="17.0024" width="28.125" height="29.1827" rx="4" fill="#40E0D0"/>
<path d="M51.916 21.0024C51.916 18.7933 53.7069 17.0024 55.916 17.0024H76.916V38.9427C76.916 41.1518 75.1252 42.9427 72.916 42.9427H51.916V21.0024Z" fill="#7DEFE4"/>
<path d="M62.0723 17.0024H68.3223V21.4875C68.3223 22.5921 67.4268 23.4875 66.3223 23.4875H64.0723C62.9677 23.4875 62.0723 22.5921 62.0723 21.4875V17.0024Z" fill="#40E0D0"/>
<path d="M40.6666 21.7715C41.3083 21.3763 41.5969 20.6511 41.3113 20.1517C41.0256 19.6523 40.2738 19.5679 39.6321 19.9631C38.9904 20.3583 38.7018 21.0835 38.9875 21.5829C39.2731 22.0823 40.0249 22.1667 40.6666 21.7715Z" fill="#AD5A1C"/>
<path d="M41.0174 21.4456C41.1288 21.2976 41.2108 21.1268 41.2586 20.9429C41.3065 20.759 41.3192 20.5657 41.2961 20.374C41.2729 20.1822 41.2144 19.9959 41.1239 19.8256C41.0334 19.6554 40.9126 19.5045 40.7684 19.3816C40.7501 19.3495 40.7053 19.3416 40.6778 19.319C40.1766 20.1134 39.5949 20.8459 38.9425 21.5044C38.9845 21.5518 39.0287 21.597 39.0749 21.6399C39.3661 21.8868 39.734 22.005 40.0981 21.9686C40.4621 21.9322 40.7927 21.7442 41.0174 21.4456Z" fill="#874315"/>
<path d="M40.955 21.5939C40.6899 21.7568 40.3956 21.8563 40.1038 21.8819C39.8121 21.9074 39.5341 21.8579 39.2998 21.7387C39.0656 21.6195 38.884 21.4351 38.7749 21.2056C38.6657 20.9761 38.633 20.7101 38.6804 20.4365C38.7278 20.1628 38.8534 19.8919 39.0437 19.6531C39.2339 19.4142 39.4816 19.2166 39.7599 19.0814C40.0382 18.9463 40.3364 18.8789 40.6225 18.8864C40.9085 18.894 41.1713 18.9762 41.3826 19.1243C41.5346 19.2311 41.6562 19.3694 41.7406 19.5315C41.8249 19.6936 41.8702 19.8762 41.874 20.069C41.8778 20.2617 41.84 20.4607 41.7627 20.6548C41.6853 20.8488 41.5701 21.0339 41.4234 21.1997C41.2896 21.3528 41.1307 21.4865 40.955 21.5939ZM39.9276 19.7979C39.8427 19.8502 39.7663 19.9152 39.702 19.9896C39.5681 20.1431 39.4917 20.3273 39.488 20.5062C39.4842 20.685 39.5534 20.8455 39.6818 20.956C39.8103 21.0666 39.9887 21.1193 40.1821 21.1037C40.3755 21.0882 40.5698 21.0055 40.7269 20.8719C40.884 20.7383 40.9924 20.5636 41.031 20.3819C41.0695 20.2003 41.0353 20.0249 40.9352 19.8903C40.835 19.7557 40.676 19.6716 40.4896 19.6545C40.3031 19.6374 40.1027 19.6885 39.9276 19.7979Z" fill="#1E0505"/>
<path d="M31.9332 24.3593C32.6011 24.6692 33.3011 24.9008 34.0201 25.0498C34.2254 24.897 34.3862 24.6886 34.4845 24.448C34.5829 24.2074 34.6149 23.9438 34.5771 23.6867C34.5392 23.4296 34.433 23.189 34.2703 22.9915C34.1075 22.7941 33.8945 22.6476 33.655 22.5684C33.4155 22.4891 33.1588 22.4802 32.9135 22.5426C32.6682 22.605 32.4439 22.7363 32.2655 22.9219C32.0871 23.1074 31.9616 23.34 31.9029 23.5938C31.8443 23.8476 31.8547 24.1126 31.9332 24.3593Z" fill="#AD5A1C"/>
<path d="M33.9721 25.8947L33.8043 25.8439C33.0302 25.6034 32.2691 25.2693 31.5352 24.8478L31.3755 24.7568L31.31 24.5729C31.1348 24.0908 31.1165 23.5794 31.2585 23.138C31.4005 22.6966 31.6928 22.3566 32.0785 22.1841C32.4643 22.0116 32.916 22.0188 33.3462 22.2043C33.7763 22.3898 34.1541 22.7404 34.4062 23.1881C34.6657 23.6364 34.779 24.1537 34.7232 24.6365C34.6675 25.1193 34.4469 25.5318 34.1056 25.7915L33.9721 25.8947ZM31.9672 24.1821C32.5356 24.4948 33.1206 24.7517 33.7145 24.9494C33.8722 24.7669 33.956 24.5147 33.9502 24.2401C33.9444 23.9654 33.8494 23.687 33.6831 23.4568C33.5167 23.2266 33.2903 23.0604 33.0461 22.9892C32.802 22.918 32.5567 22.9467 32.3562 23.0699C32.1945 23.1746 32.0713 23.3359 32.0018 23.5338C31.9322 23.7317 31.9195 23.9576 31.9651 24.1834L31.9672 24.1821Z" fill="#1E0505"/>
<path d="M37.1247 7.23176C37.0428 7.18268 36.9643 7.12946 36.8878 7.07452C36.8234 7.56526 36.6687 8.05127 36.4152 8.50693C35.3703 10.3848 33.0557 11.0283 31.2459 9.94413C30.2648 9.35638 29.6346 8.38149 29.4283 7.31315C28.8364 8.2531 27.7141 8.64273 26.7136 8.30182C26.619 8.45315 26.5276 8.60754 26.4399 8.76524C23.6968 13.695 25.3247 19.9987 30.0758 22.8449C34.8269 25.6912 40.9021 24.0021 43.6452 19.0723C46.0656 14.7223 45.0821 9.30333 41.5534 6.13308C40.6003 7.65272 38.656 8.14909 37.1247 7.23176Z" fill="#FDD198"/>
<path d="M36.1023 26.7384C36.2984 26.386 36.7324 26.2657 37.0716 26.4689C37.4108 26.6721 37.5273 27.1222 37.3313 27.4746C37.1354 27.8266 36.7012 27.9473 36.362 27.7441C36.0228 27.5409 35.9065 27.0903 36.1023 26.7384Z" fill="#3ABEFF"/>
<path d="M40.393 11.1732C40.7197 10.5862 41.4427 10.3852 42.0084 10.7241C42.5742 11.063 42.7679 11.8132 42.4413 12.4002C42.1146 12.9873 41.3916 13.1883 40.8259 12.8494C40.2602 12.5104 40.0664 11.7602 40.393 11.1732Z" fill="#FF8A26"/>
<path d="M30.4388 20.2285C30.7002 19.7588 31.2785 19.598 31.7312 19.8692C32.1838 20.1404 32.3388 20.7404 32.0774 21.2101C31.8163 21.6794 31.2378 21.8406 30.7851 21.5694C30.3325 21.2983 30.1777 20.6978 30.4388 20.2285Z" fill="#FF8A26"/>
<path d="M31.4017 14.5713C31.6631 14.1016 32.2414 13.9408 32.6941 14.212C33.1467 14.4831 33.3017 15.0832 33.0403 15.5529C32.7792 16.0222 32.2007 16.1834 31.748 15.9122C31.2953 15.641 31.1406 15.0405 31.4017 14.5713Z" fill="#FF8A26"/>
<path d="M40.068 18.6297C40.5905 17.6907 40.2804 16.49 39.3754 15.9479C38.4704 15.4057 37.3133 15.7275 36.7908 16.6665C36.2683 17.6055 36.5784 18.8062 37.4833 19.3483C38.3883 19.8905 39.5455 19.5687 40.068 18.6297Z" fill="#FF8A26"/>
<path d="M36.6345 12.0383C36.5039 12.273 36.5815 12.5733 36.8076 12.7088C37.0337 12.8442 37.3232 12.7638 37.4538 12.5291C37.5843 12.2945 37.5067 11.9941 37.2806 11.8587C37.0545 11.7232 36.765 11.8037 36.6345 12.0383Z" fill="#EF3734"/>
<path d="M41.7238 15.6536C41.5933 15.8882 41.6708 16.1886 41.897 16.324C42.1231 16.4595 42.4126 16.379 42.5431 16.1444C42.6737 15.9097 42.5961 15.6094 42.37 15.4739C42.1439 15.3384 41.8544 15.4189 41.7238 15.6536Z" fill="#EF3734"/>
<path d="M27.9343 15.8943C27.8037 16.1289 27.8813 16.4293 28.1074 16.5647C28.3335 16.7002 28.623 16.6197 28.7536 16.3851C28.8841 16.1505 28.8066 15.8501 28.5804 15.7146C28.3543 15.5792 28.0648 15.6596 27.9343 15.8943Z" fill="#EF3734"/>
<path d="M34.489 19.8205C34.3584 20.0552 34.436 20.3555 34.6621 20.491C34.8882 20.6265 35.1777 20.546 35.3083 20.3114C35.4388 20.0767 35.3612 19.7764 35.1351 19.6409C34.909 19.5054 34.6195 19.5859 34.489 19.8205Z" fill="#EF3734"/>
<rect x="21.916" y="17.0024" width="28.125" height="29.1827" rx="4" fill="#40E0D0"/>
<path d="M21.916 21.0024C21.916 18.7933 23.7069 17.0024 25.916 17.0024H46.916V38.9427C46.916 41.1518 45.1252 42.9427 42.916 42.9427H21.916V21.0024Z" fill="#7DEFE4"/>
<path d="M32.0723 17.0024H38.3223V21.4875C38.3223 22.5921 37.4268 23.4875 36.3223 23.4875H34.0723C32.9677 23.4875 32.0723 22.5921 32.0723 21.4875V17.0024Z" fill="#40E0D0"/>
<defs>
<filter id="filter0_d_802_181" x="0" y="46.2319" width="133" height="50.1528" filterUnits="userSpaceOnUse" color-interpolation-filters="sRGB">
<feFlood flood-opacity="0" result="BackgroundImageFix"/>
<feColorMatrix in="SourceAlpha" type="matrix" values="0 0 0 0 0 0 0 0 0 0 0 0 0 0 0 0 0 0 127 0" result="hardAlpha"/>
<feOffset dy="4"/>
<feGaussianBlur stdDeviation="2"/>
<feComposite in2="hardAlpha" operator="out"/>
<feColorMatrix type="matrix" values="0 0 0 0 0 0 0 0 0 0 0 0 0 0 0 0 0 0 0.1 0"/>
<feBlend mode="normal" in2="BackgroundImageFix" result="effect1_dropShadow_802_181"/>
<feBlend mode="normal" in="SourceGraphic" in2="effect1_dropShadow_802_181" result="shape"/>
</filter>
<filter id="filter1_d_802_181" x="15.625" y="56.77" width="104.875" height="28.2656" filterUnits="userSpaceOnUse" color-interpolation-filters="sRGB">
<feFlood flood-opacity="0" result="BackgroundImageFix"/>
<feColorMatrix in="SourceAlpha" type="matrix" values="0 0 0 0 0 0 0 0 0 0 0 0 0 0 0 0 0 0 127 0" result="hardAlpha"/>
<feOffset dy="4"/>
<feGaussianBlur stdDeviation="2"/>
<feComposite in2="hardAlpha" operator="out"/>
<feColorMatrix type="matrix" values="0 0 0 0 0 0 0 0 0 0 0 0 0 0 0 0 0 0 0.25 0"/>
<feBlend mode="normal" in2="BackgroundImageFix" result="effect1_dropShadow_802_181"/>
<feBlend mode="normal" in="SourceGraphic" in2="effect1_dropShadow_802_181" result="shape"/>
</filter>
<filter id="filter2_d_802_181" x="15.625" y="56.77" width="27.5312" height="28.2656" filterUnits="userSpaceOnUse" color-interpolation-filters="sRGB">
<feFlood flood-opacity="0" result="BackgroundImageFix"/>
<feColorMatrix in="SourceAlpha" type="matrix" values="0 0 0 0 0 0 0 0 0 0 0 0 0 0 0 0 0 0 127 0" result="hardAlpha"/>
<feOffset dy="4"/>
<feGaussianBlur stdDeviation="2"/>
<feComposite in2="hardAlpha" operator="out"/>
<feColorMatrix type="matrix" values="0 0 0 0 0 0 0 0 0 0 0 0 0 0 0 0 0 0 0.25 0"/>
<feBlend mode="normal" in2="BackgroundImageFix" result="effect1_dropShadow_802_181"/>
<feBlend mode="normal" in="SourceGraphic" in2="effect1_dropShadow_802_181" result="shape"/>
</filter>
<filter id="filter3_d_802_181" x="41.4062" y="56.77" width="27.5312" height="28.2656" filterUnits="userSpaceOnUse" color-interpolation-filters="sRGB">
<feFlood flood-opacity="0" result="BackgroundImageFix"/>
<feColorMatrix in="SourceAlpha" type="matrix" values="0 0 0 0 0 0 0 0 0 0 0 0 0 0 0 0 0 0 127 0" result="hardAlpha"/>
<feOffset dy="4"/>
<feGaussianBlur stdDeviation="2"/>
<feComposite in2="hardAlpha" operator="out"/>
<feColorMatrix type="matrix" values="0 0 0 0 0 0 0 0 0 0 0 0 0 0 0 0 0 0 0.25 0"/>
<feBlend mode="normal" in2="BackgroundImageFix" result="effect1_dropShadow_802_181"/>
<feBlend mode="normal" in="SourceGraphic" in2="effect1_dropShadow_802_181" result="shape"/>
</filter>
<filter id="filter4_d_802_181" x="67.1875" y="56.77" width="27.5312" height="28.2656" filterUnits="userSpaceOnUse" color-interpolation-filters="sRGB">
<feFlood flood-opacity="0" result="BackgroundImageFix"/>
<feColorMatrix in="SourceAlpha" type="matrix" values="0 0 0 0 0 0 0 0 0 0 0 0 0 0 0 0 0 0 127 0" result="hardAlpha"/>
<feOffset dy="4"/>
<feGaussianBlur stdDeviation="2"/>
<feComposite in2="hardAlpha" operator="out"/>
<feColorMatrix type="matrix" values="0 0 0 0 0 0 0 0 0 0 0 0 0 0 0 0 0 0 0.25 0"/>
<feBlend mode="normal" in2="BackgroundImageFix" result="effect1_dropShadow_802_181"/>
<feBlend mode="normal" in="SourceGraphic" in2="effect1_dropShadow_802_181" result="shape"/>
</filter>
<filter id="filter5_d_802_181" x="92.9688" y="56.77" width="27.5312" height="28.2656" filterUnits="userSpaceOnUse" color-interpolation-filters="sRGB">
<feFlood flood-opacity="0" result="BackgroundImageFix"/>
<feColorMatrix in="SourceAlpha" type="matrix" values="0 0 0 0 0 0 0 0 0 0 0 0 0 0 0 0 0 0 127 0" result="hardAlpha"/>
<feOffset dy="4"/>
<feGaussianBlur stdDeviation="2"/>
<feComposite in2="hardAlpha" operator="out"/>
<feColorMatrix type="matrix" values="0 0 0 0 0 0 0 0 0 0 0 0 0 0 0 0 0 0 0.25 0"/>
<feBlend mode="normal" in2="BackgroundImageFix" result="effect1_dropShadow_802_181"/>
<feBlend mode="normal" in="SourceGraphic" in2="effect1_dropShadow_802_181" result="shape"/>
</filter>
<filter id="filter6_d_802_181" x="25" y="62.4443" width="8.78125" height="8.81055" filterUnits="userSpaceOnUse" color-interpolation-filters="sRGB">
<feFlood flood-opacity="0" result="BackgroundImageFix"/>
<feColorMatrix in="SourceAlpha" type="matrix" values="0 0 0 0 0 0 0 0 0 0 0 0 0 0 0 0 0 0 127 0" result="hardAlpha"/>
<feOffset dy="4"/>
<feGaussianBlur stdDeviation="2"/>
<feComposite in2="hardAlpha" operator="out"/>
<feColorMatrix type="matrix" values="0 0 0 0 0 0 0 0 0 0 0 0 0 0 0 0 0 0 0.25 0"/>
<feBlend mode="normal" in2="BackgroundImageFix" result="effect1_dropShadow_802_181"/>
<feBlend mode="normal" in="SourceGraphic" in2="effect1_dropShadow_802_181" result="shape"/>
</filter>
<filter id="filter7_d_802_181" x="50.7812" y="62.4443" width="8.78125" height="8.81055" filterUnits="userSpaceOnUse" color-interpolation-filters="sRGB">
<feFlood flood-opacity="0" result="BackgroundImageFix"/>
<feColorMatrix in="SourceAlpha" type="matrix" values="0 0 0 0 0 0 0 0 0 0 0 0 0 0 0 0 0 0 127 0" result="hardAlpha"/>
<feOffset dy="4"/>
<feGaussianBlur stdDeviation="2"/>
<feComposite in2="hardAlpha" operator="out"/>
<feColorMatrix type="matrix" values="0 0 0 0 0 0 0 0 0 0 0 0 0 0 0 0 0 0 0.25 0"/>
<feBlend mode="normal" in2="BackgroundImageFix" result="effect1_dropShadow_802_181"/>
<feBlend mode="normal" in="SourceGraphic" in2="effect1_dropShadow_802_181" result="shape"/>
</filter>
<filter id="filter8_d_802_181" x="76.5625" y="62.4443" width="8.78125" height="8.81055" filterUnits="userSpaceOnUse" color-interpolation-filters="sRGB">
<feFlood flood-opacity="0" result="BackgroundImageFix"/>
<feColorMatrix in="SourceAlpha" type="matrix" values="0 0 0 0 0 0 0 0 0 0 0 0 0 0 0 0 0 0 127 0" result="hardAlpha"/>
<feOffset dy="4"/>
<feGaussianBlur stdDeviation="2"/>
<feComposite in2="hardAlpha" operator="out"/>
<feColorMatrix type="matrix" values="0 0 0 0 0 0 0 0 0 0 0 0 0 0 0 0 0 0 0.25 0"/>
<feBlend mode="normal" in2="BackgroundImageFix" result="effect1_dropShadow_802_181"/>
<feBlend mode="normal" in="SourceGraphic" in2="effect1_dropShadow_802_181" result="shape"/>
</filter>
<filter id="filter9_d_802_181" x="102.344" y="62.4443" width="8.78125" height="8.81055" filterUnits="userSpaceOnUse" color-interpolation-filters="sRGB">
<feFlood flood-opacity="0" result="BackgroundImageFix"/>
<feColorMatrix in="SourceAlpha" type="matrix" values="0 0 0 0 0 0 0 0 0 0 0 0 0 0 0 0 0 0 127 0" result="hardAlpha"/>
<feOffset dy="4"/>
<feGaussianBlur stdDeviation="2"/>
<feComposite in2="hardAlpha" operator="out"/>
<feColorMatrix type="matrix" values="0 0 0 0 0 0 0 0 0 0 0 0 0 0 0 0 0 0 0.25 0"/>
<feBlend mode="normal" in2="BackgroundImageFix" result="effect1_dropShadow_802_181"/>
<feBlend mode="normal" in="SourceGraphic" in2="effect1_dropShadow_802_181" result="shape"/>
</filter>
<filter id="filter10_d_802_181" x="28.125" y="64.0659" width="9.5625" height="9.62109" filterUnits="userSpaceOnUse" color-interpolation-filters="sRGB">
<feFlood flood-opacity="0" result="BackgroundImageFix"/>
<feColorMatrix in="SourceAlpha" type="matrix" values="0 0 0 0 0 0 0 0 0 0 0 0 0 0 0 0 0 0 127 0" result="hardAlpha"/>
<feOffset dy="4"/>
<feGaussianBlur stdDeviation="2"/>
<feComposite in2="hardAlpha" operator="out"/>
<feColorMatrix type="matrix" values="0 0 0 0 0 0 0 0 0 0 0 0 0 0 0 0 0 0 0.25 0"/>
<feBlend mode="normal" in2="BackgroundImageFix" result="effect1_dropShadow_802_181"/>
<feBlend mode="normal" in="SourceGraphic" in2="effect1_dropShadow_802_181" result="shape"/>
</filter>
<filter id="filter11_d_802_181" x="54.6875" y="64.0659" width="8.78125" height="9.62109" filterUnits="userSpaceOnUse" color-interpolation-filters="sRGB">
<feFlood flood-opacity="0" result="BackgroundImageFix"/>
<feColorMatrix in="SourceAlpha" type="matrix" values="0 0 0 0 0 0 0 0 0 0 0 0 0 0 0 0 0 0 127 0" result="hardAlpha"/>
<feOffset dy="4"/>
<feGaussianBlur stdDeviation="2"/>
<feComposite in2="hardAlpha" operator="out"/>
<feColorMatrix type="matrix" values="0 0 0 0 0 0 0 0 0 0 0 0 0 0 0 0 0 0 0.25 0"/>
<feBlend mode="normal" in2="BackgroundImageFix" result="effect1_dropShadow_802_181"/>
<feBlend mode="normal" in="SourceGraphic" in2="effect1_dropShadow_802_181" result="shape"/>
</filter>
<filter id="filter12_d_802_181" x="80.4688" y="64.0659" width="8.78125" height="9.62109" filterUnits="userSpaceOnUse" color-interpolation-filters="sRGB">
<feFlood flood-opacity="0" result="BackgroundImageFix"/>
<feColorMatrix in="SourceAlpha" type="matrix" values="0 0 0 0 0 0 0 0 0 0 0 0 0 0 0 0 0 0 127 0" result="hardAlpha"/>
<feOffset dy="4"/>
<feGaussianBlur stdDeviation="2"/>
<feComposite in2="hardAlpha" operator="out"/>
<feColorMatrix type="matrix" values="0 0 0 0 0 0 0 0 0 0 0 0 0 0 0 0 0 0 0.25 0"/>
<feBlend mode="normal" in2="BackgroundImageFix" result="effect1_dropShadow_802_181"/>
<feBlend mode="normal" in="SourceGraphic" in2="effect1_dropShadow_802_181" result="shape"/>
</filter>
<filter id="filter13_d_802_181" x="105.469" y="64.0659" width="8.78125" height="9.62109" filterUnits="userSpaceOnUse" color-interpolation-filters="sRGB">
<feFlood flood-opacity="0" result="BackgroundImageFix"/>
<feColorMatrix in="SourceAlpha" type="matrix" values="0 0 0 0 0 0 0 0 0 0 0 0 0 0 0 0 0 0 127 0" result="hardAlpha"/>
<feOffset dy="4"/>
<feGaussianBlur stdDeviation="2"/>
<feComposite in2="hardAlpha" operator="out"/>
<feColorMatrix type="matrix" values="0 0 0 0 0 0 0 0 0 0 0 0 0 0 0 0 0 0 0.25 0"/>
<feBlend mode="normal" in2="BackgroundImageFix" result="effect1_dropShadow_802_181"/>
<feBlend mode="normal" in="SourceGraphic" in2="effect1_dropShadow_802_181" result="shape"/>
</filter>
<filter id="filter14_d_802_181" x="28.125" y="68.1191" width="9.5625" height="9.62109" filterUnits="userSpaceOnUse" color-interpolation-filters="sRGB">
<feFlood flood-opacity="0" result="BackgroundImageFix"/>
<feColorMatrix in="SourceAlpha" type="matrix" values="0 0 0 0 0 0 0 0 0 0 0 0 0 0 0 0 0 0 127 0" result="hardAlpha"/>
<feOffset dy="4"/>
<feGaussianBlur stdDeviation="2"/>
<feComposite in2="hardAlpha" operator="out"/>
<feColorMatrix type="matrix" values="0 0 0 0 0 0 0 0 0 0 0 0 0 0 0 0 0 0 0.25 0"/>
<feBlend mode="normal" in2="BackgroundImageFix" result="effect1_dropShadow_802_181"/>
<feBlend mode="normal" in="SourceGraphic" in2="effect1_dropShadow_802_181" result="shape"/>
</filter>
<filter id="filter15_d_802_181" x="54.6875" y="68.1191" width="8.78125" height="9.62109" filterUnits="userSpaceOnUse" color-interpolation-filters="sRGB">
<feFlood flood-opacity="0" result="BackgroundImageFix"/>
<feColorMatrix in="SourceAlpha" type="matrix" values="0 0 0 0 0 0 0 0 0 0 0 0 0 0 0 0 0 0 127 0" result="hardAlpha"/>
<feOffset dy="4"/>
<feGaussianBlur stdDeviation="2"/>
<feComposite in2="hardAlpha" operator="out"/>
<feColorMatrix type="matrix" values="0 0 0 0 0 0 0 0 0 0 0 0 0 0 0 0 0 0 0.25 0"/>
<feBlend mode="normal" in2="BackgroundImageFix" result="effect1_dropShadow_802_181"/>
<feBlend mode="normal" in="SourceGraphic" in2="effect1_dropShadow_802_181" result="shape"/>
</filter>
<filter id="filter16_d_802_181" x="80.4688" y="68.1191" width="8.78125" height="9.62109" filterUnits="userSpaceOnUse" color-interpolation-filters="sRGB">
<feFlood flood-opacity="0" result="BackgroundImageFix"/>
<feColorMatrix in="SourceAlpha" type="matrix" values="0 0 0 0 0 0 0 0 0 0 0 0 0 0 0 0 0 0 127 0" result="hardAlpha"/>
<feOffset dy="4"/>
<feGaussianBlur stdDeviation="2"/>
<feComposite in2="hardAlpha" operator="out"/>
<feColorMatrix type="matrix" values="0 0 0 0 0 0 0 0 0 0 0 0 0 0 0 0 0 0 0.25 0"/>
<feBlend mode="normal" in2="BackgroundImageFix" result="effect1_dropShadow_802_181"/>
<feBlend mode="normal" in="SourceGraphic" in2="effect1_dropShadow_802_181" result="shape"/>
</filter>
<filter id="filter17_d_802_181" x="105.469" y="68.1191" width="8.78125" height="9.62109" filterUnits="userSpaceOnUse" color-interpolation-filters="sRGB">
<feFlood flood-opacity="0" result="BackgroundImageFix"/>
<feColorMatrix in="SourceAlpha" type="matrix" values="0 0 0 0 0 0 0 0 0 0 0 0 0 0 0 0 0 0 127 0" result="hardAlpha"/>
<feOffset dy="4"/>
<feGaussianBlur stdDeviation="2"/>
<feComposite in2="hardAlpha" operator="out"/>
<feColorMatrix type="matrix" values="0 0 0 0 0 0 0 0 0 0 0 0 0 0 0 0 0 0 0.25 0"/>
<feBlend mode="normal" in2="BackgroundImageFix" result="effect1_dropShadow_802_181"/>
<feBlend mode="normal" in="SourceGraphic" in2="effect1_dropShadow_802_181" result="shape"/>
</filter>
<filter id="filter18_d_802_181" x="25" y="70.5508" width="8.78125" height="8.81055" filterUnits="userSpaceOnUse" color-interpolation-filters="sRGB">
<feFlood flood-opacity="0" result="BackgroundImageFix"/>
<feColorMatrix in="SourceAlpha" type="matrix" values="0 0 0 0 0 0 0 0 0 0 0 0 0 0 0 0 0 0 127 0" result="hardAlpha"/>
<feOffset dy="4"/>
<feGaussianBlur stdDeviation="2"/>
<feComposite in2="hardAlpha" operator="out"/>
<feColorMatrix type="matrix" values="0 0 0 0 0 0 0 0 0 0 0 0 0 0 0 0 0 0 0.25 0"/>
<feBlend mode="normal" in2="BackgroundImageFix" result="effect1_dropShadow_802_181"/>
<feBlend mode="normal" in="SourceGraphic" in2="effect1_dropShadow_802_181" result="shape"/>
</filter>
<filter id="filter19_d_802_181" x="50.7812" y="70.5508" width="9.5625" height="8.81055" filterUnits="userSpaceOnUse" color-interpolation-filters="sRGB">
<feFlood flood-opacity="0" result="BackgroundImageFix"/>
<feColorMatrix in="SourceAlpha" type="matrix" values="0 0 0 0 0 0 0 0 0 0 0 0 0 0 0 0 0 0 127 0" result="hardAlpha"/>
<feOffset dy="4"/>
<feGaussianBlur stdDeviation="2"/>
<feComposite in2="hardAlpha" operator="out"/>
<feColorMatrix type="matrix" values="0 0 0 0 0 0 0 0 0 0 0 0 0 0 0 0 0 0 0.25 0"/>
<feBlend mode="normal" in2="BackgroundImageFix" result="effect1_dropShadow_802_181"/>
<feBlend mode="normal" in="SourceGraphic" in2="effect1_dropShadow_802_181" result="shape"/>
</filter>
<filter id="filter20_d_802_181" x="76.5625" y="70.5508" width="8.78125" height="8.81055" filterUnits="userSpaceOnUse" color-interpolation-filters="sRGB">
<feFlood flood-opacity="0" result="BackgroundImageFix"/>
<feColorMatrix in="SourceAlpha" type="matrix" values="0 0 0 0 0 0 0 0 0 0 0 0 0 0 0 0 0 0 127 0" result="hardAlpha"/>
<feOffset dy="4"/>
<feGaussianBlur stdDeviation="2"/>
<feComposite in2="hardAlpha" operator="out"/>
<feColorMatrix type="matrix" values="0 0 0 0 0 0 0 0 0 0 0 0 0 0 0 0 0 0 0.25 0"/>
<feBlend mode="normal" in2="BackgroundImageFix" result="effect1_dropShadow_802_181"/>
<feBlend mode="normal" in="SourceGraphic" in2="effect1_dropShadow_802_181" result="shape"/>
</filter>
<filter id="filter21_d_802_181" x="102.344" y="70.5508" width="8.78125" height="8.81055" filterUnits="userSpaceOnUse" color-interpolation-filters="sRGB">
<feFlood flood-opacity="0" result="BackgroundImageFix"/>
<feColorMatrix in="SourceAlpha" type="matrix" values="0 0 0 0 0 0 0 0 0 0 0 0 0 0 0 0 0 0 127 0" result="hardAlpha"/>
<feOffset dy="4"/>
<feGaussianBlur stdDeviation="2"/>
<feComposite in2="hardAlpha" operator="out"/>
<feColorMatrix type="matrix" values="0 0 0 0 0 0 0 0 0 0 0 0 0 0 0 0 0 0 0.25 0"/>
<feBlend mode="normal" in2="BackgroundImageFix" result="effect1_dropShadow_802_181"/>
<feBlend mode="normal" in="SourceGraphic" in2="effect1_dropShadow_802_181" result="shape"/>
</filter>
<filter id="filter22_d_802_181" x="21.0938" y="68.9297" width="9.5625" height="8.81055" filterUnits="userSpaceOnUse" color-interpolation-filters="sRGB">
<feFlood flood-opacity="0" result="BackgroundImageFix"/>
<feColorMatrix in="SourceAlpha" type="matrix" values="0 0 0 0 0 0 0 0 0 0 0 0 0 0 0 0 0 0 127 0" result="hardAlpha"/>
<feOffset dy="4"/>
<feGaussianBlur stdDeviation="2"/>
<feComposite in2="hardAlpha" operator="out"/>
<feColorMatrix type="matrix" values="0 0 0 0 0 0 0 0 0 0 0 0 0 0 0 0 0 0 0.25 0"/>
<feBlend mode="normal" in2="BackgroundImageFix" result="effect1_dropShadow_802_181"/>
<feBlend mode="normal" in="SourceGraphic" in2="effect1_dropShadow_802_181" result="shape"/>
</filter>
<filter id="filter23_d_802_181" x="47.6562" y="68.9297" width="8.78125" height="8.81055" filterUnits="userSpaceOnUse" color-interpolation-filters="sRGB">
<feFlood flood-opacity="0" result="BackgroundImageFix"/>
<feColorMatrix in="SourceAlpha" type="matrix" values="0 0 0 0 0 0 0 0 0 0 0 0 0 0 0 0 0 0 127 0" result="hardAlpha"/>
<feOffset dy="4"/>
<feGaussianBlur stdDeviation="2"/>
<feComposite in2="hardAlpha" operator="out"/>
<feColorMatrix type="matrix" values="0 0 0 0 0 0 0 0 0 0 0 0 0 0 0 0 0 0 0.25 0"/>
<feBlend mode="normal" in2="BackgroundImageFix" result="effect1_dropShadow_802_181"/>
<feBlend mode="normal" in="SourceGraphic" in2="effect1_dropShadow_802_181" result="shape"/>
</filter>
<filter id="filter24_d_802_181" x="73.4375" y="68.9297" width="8.78125" height="8.81055" filterUnits="userSpaceOnUse" color-interpolation-filters="sRGB">
<feFlood flood-opacity="0" result="BackgroundImageFix"/>
<feColorMatrix in="SourceAlpha" type="matrix" values="0 0 0 0 0 0 0 0 0 0 0 0 0 0 0 0 0 0 127 0" result="hardAlpha"/>
<feOffset dy="4"/>
<feGaussianBlur stdDeviation="2"/>
<feComposite in2="hardAlpha" operator="out"/>
<feColorMatrix type="matrix" values="0 0 0 0 0 0 0 0 0 0 0 0 0 0 0 0 0 0 0.25 0"/>
<feBlend mode="normal" in2="BackgroundImageFix" result="effect1_dropShadow_802_181"/>
<feBlend mode="normal" in="SourceGraphic" in2="effect1_dropShadow_802_181" result="shape"/>
</filter>
<filter id="filter25_d_802_181" x="98.4375" y="68.9297" width="8.78125" height="8.81055" filterUnits="userSpaceOnUse" color-interpolation-filters="sRGB">
<feFlood flood-opacity="0" result="BackgroundImageFix"/>
<feColorMatrix in="SourceAlpha" type="matrix" values="0 0 0 0 0 0 0 0 0 0 0 0 0 0 0 0 0 0 127 0" result="hardAlpha"/>
<feOffset dy="4"/>
<feGaussianBlur stdDeviation="2"/>
<feComposite in2="hardAlpha" operator="out"/>
<feColorMatrix type="matrix" values="0 0 0 0 0 0 0 0 0 0 0 0 0 0 0 0 0 0 0.25 0"/>
<feBlend mode="normal" in2="BackgroundImageFix" result="effect1_dropShadow_802_181"/>
<feBlend mode="normal" in="SourceGraphic" in2="effect1_dropShadow_802_181" result="shape"/>
</filter>
<filter id="filter26_d_802_181" x="21.0938" y="64.0659" width="9.5625" height="9.62109" filterUnits="userSpaceOnUse" color-interpolation-filters="sRGB">
<feFlood flood-opacity="0" result="BackgroundImageFix"/>
<feColorMatrix in="SourceAlpha" type="matrix" values="0 0 0 0 0 0 0 0 0 0 0 0 0 0 0 0 0 0 127 0" result="hardAlpha"/>
<feOffset dy="4"/>
<feGaussianBlur stdDeviation="2"/>
<feComposite in2="hardAlpha" operator="out"/>
<feColorMatrix type="matrix" values="0 0 0 0 0 0 0 0 0 0 0 0 0 0 0 0 0 0 0.25 0"/>
<feBlend mode="normal" in2="BackgroundImageFix" result="effect1_dropShadow_802_181"/>
<feBlend mode="normal" in="SourceGraphic" in2="effect1_dropShadow_802_181" result="shape"/>
</filter>
<filter id="filter27_d_802_181" x="47.6562" y="64.0659" width="8.78125" height="9.62109" filterUnits="userSpaceOnUse" color-interpolation-filters="sRGB">
<feFlood flood-opacity="0" result="BackgroundImageFix"/>
<feColorMatrix in="SourceAlpha" type="matrix" values="0 0 0 0 0 0 0 0 0 0 0 0 0 0 0 0 0 0 127 0" result="hardAlpha"/>
<feOffset dy="4"/>
<feGaussianBlur stdDeviation="2"/>
<feComposite in2="hardAlpha" operator="out"/>
<feColorMatrix type="matrix" values="0 0 0 0 0 0 0 0 0 0 0 0 0 0 0 0 0 0 0.25 0"/>
<feBlend mode="normal" in2="BackgroundImageFix" result="effect1_dropShadow_802_181"/>
<feBlend mode="normal" in="SourceGraphic" in2="effect1_dropShadow_802_181" result="shape"/>
</filter>
<filter id="filter28_d_802_181" x="73.4375" y="64.0659" width="8.78125" height="9.62109" filterUnits="userSpaceOnUse" color-interpolation-filters="sRGB">
<feFlood flood-opacity="0" result="BackgroundImageFix"/>
<feColorMatrix in="SourceAlpha" type="matrix" values="0 0 0 0 0 0 0 0 0 0 0 0 0 0 0 0 0 0 127 0" result="hardAlpha"/>
<feOffset dy="4"/>
<feGaussianBlur stdDeviation="2"/>
<feComposite in2="hardAlpha" operator="out"/>
<feColorMatrix type="matrix" values="0 0 0 0 0 0 0 0 0 0 0 0 0 0 0 0 0 0 0.25 0"/>
<feBlend mode="normal" in2="BackgroundImageFix" result="effect1_dropShadow_802_181"/>
<feBlend mode="normal" in="SourceGraphic" in2="effect1_dropShadow_802_181" result="shape"/>
</filter>
<filter id="filter29_d_802_181" x="98.4375" y="64.0659" width="8.78125" height="9.62109" filterUnits="userSpaceOnUse" color-interpolation-filters="sRGB">
<feFlood flood-opacity="0" result="BackgroundImageFix"/>
<feColorMatrix in="SourceAlpha" type="matrix" values="0 0 0 0 0 0 0 0 0 0 0 0 0 0 0 0 0 0 127 0" result="hardAlpha"/>
<feOffset dy="4"/>
<feGaussianBlur stdDeviation="2"/>
<feComposite in2="hardAlpha" operator="out"/>
<feColorMatrix type="matrix" values="0 0 0 0 0 0 0 0 0 0 0 0 0 0 0 0 0 0 0.25 0"/>
<feBlend mode="normal" in2="BackgroundImageFix" result="effect1_dropShadow_802_181"/>
<feBlend mode="normal" in="SourceGraphic" in2="effect1_dropShadow_802_181" result="shape"/>
</filter>
<filter id="filter30_d_802_181" x="23.4375" y="64.8765" width="11.9062" height="12.0532" filterUnits="userSpaceOnUse" color-interpolation-filters="sRGB">
<feFlood flood-opacity="0" result="BackgroundImageFix"/>
<feColorMatrix in="SourceAlpha" type="matrix" values="0 0 0 0 0 0 0 0 0 0 0 0 0 0 0 0 0 0 127 0" result="hardAlpha"/>
<feOffset dy="4"/>
<feGaussianBlur stdDeviation="2"/>
<feComposite in2="hardAlpha" operator="out"/>
<feColorMatrix type="matrix" values="0 0 0 0 0 0 0 0 0 0 0 0 0 0 0 0 0 0 0.25 0"/>
<feBlend mode="normal" in2="BackgroundImageFix" result="effect1_dropShadow_802_181"/>
<feBlend mode="normal" in="SourceGraphic" in2="effect1_dropShadow_802_181" result="shape"/>
</filter>
<filter id="filter31_d_802_181" x="49.2188" y="64.8765" width="11.9062" height="12.0532" filterUnits="userSpaceOnUse" color-interpolation-filters="sRGB">
<feFlood flood-opacity="0" result="BackgroundImageFix"/>
<feColorMatrix in="SourceAlpha" type="matrix" values="0 0 0 0 0 0 0 0 0 0 0 0 0 0 0 0 0 0 127 0" result="hardAlpha"/>
<feOffset dy="4"/>
<feGaussianBlur stdDeviation="2"/>
<feComposite in2="hardAlpha" operator="out"/>
<feColorMatrix type="matrix" values="0 0 0 0 0 0 0 0 0 0 0 0 0 0 0 0 0 0 0.25 0"/>
<feBlend mode="normal" in2="BackgroundImageFix" result="effect1_dropShadow_802_181"/>
<feBlend mode="normal" in="SourceGraphic" in2="effect1_dropShadow_802_181" result="shape"/>
</filter>
<filter id="filter32_d_802_181" x="75" y="64.8765" width="11.9062" height="12.0532" filterUnits="userSpaceOnUse" color-interpolation-filters="sRGB">
<feFlood flood-opacity="0" result="BackgroundImageFix"/>
<feColorMatrix in="SourceAlpha" type="matrix" values="0 0 0 0 0 0 0 0 0 0 0 0 0 0 0 0 0 0 127 0" result="hardAlpha"/>
<feOffset dy="4"/>
<feGaussianBlur stdDeviation="2"/>
<feComposite in2="hardAlpha" operator="out"/>
<feColorMatrix type="matrix" values="0 0 0 0 0 0 0 0 0 0 0 0 0 0 0 0 0 0 0.25 0"/>
<feBlend mode="normal" in2="BackgroundImageFix" result="effect1_dropShadow_802_181"/>
<feBlend mode="normal" in="SourceGraphic" in2="effect1_dropShadow_802_181" result="shape"/>
</filter>
<filter id="filter33_d_802_181" x="100.781" y="64.8765" width="11.9062" height="12.0532" filterUnits="userSpaceOnUse" color-interpolation-filters="sRGB">
<feFlood flood-opacity="0" result="BackgroundImageFix"/>
<feColorMatrix in="SourceAlpha" type="matrix" values="0 0 0 0 0 0 0 0 0 0 0 0 0 0 0 0 0 0 127 0" result="hardAlpha"/>
<feOffset dy="4"/>
<feGaussianBlur stdDeviation="2"/>
<feComposite in2="hardAlpha" operator="out"/>
<feColorMatrix type="matrix" values="0 0 0 0 0 0 0 0 0 0 0 0 0 0 0 0 0 0 0.25 0"/>
<feBlend mode="normal" in2="BackgroundImageFix" result="effect1_dropShadow_802_181"/>
<feBlend mode="normal" in="SourceGraphic" in2="effect1_dropShadow_802_181" result="shape"/>
</filter>
<linearGradient id="paint0_linear_802_181" x1="129" y1="67.3084" x2="4" y2="67.3084" gradientUnits="userSpaceOnUse">
<stop stop-color="#414042"/>
<stop offset="1" stop-color="#939598"/>
</linearGradient>
</defs>
</svg>
